<svg xmlns="http://www.w3.org/2000/svg" xmlns:xlink="http://www.w3.org/1999/xlink" width="1920" zoomAndPan="magnify" viewBox="0 0 1440 809.999993" height="1080" preserveAspectRatio="xMidYMid meet" version="1.0"><defs><g/><clipPath id="e0e937b264"><rect x="0" width="693" y="0" height="90"/></clipPath><clipPath id="5fc5ee1bd9"><rect x="0" width="804" y="0" height="90"/></clipPath><clipPath id="6093688b8f"><rect x="0" width="853" y="0" height="180"/></clipPath><clipPath id="5e406da3c5"><rect x="0" width="771" y="0" height="90"/></clipPath><clipPath id="18e3f7f9cc"><rect x="0" width="709" y="0" height="90"/></clipPath><clipPath id="6231c015a6"><path d="M 1022.972656 515.8125 L 1132 515.8125 L 1132 743 L 1022.972656 743 Z M 1022.972656 515.8125 " clip-rule="nonzero"/></clipPath><clipPath id="fc42c440ba"><path d="M 1055 515.8125 L 1204 515.8125 L 1204 747 L 1055 747 Z M 1055 515.8125 " clip-rule="nonzero"/></clipPath><clipPath id="d230c3563c"><path d="M 1135 515.8125 L 1238.222656 515.8125 L 1238.222656 743 L 1135 743 Z M 1135 515.8125 " clip-rule="nonzero"/></clipPath><clipPath id="4033275ad4"><path d="M 1030 669 L 1139 669 L 1139 748.3125 L 1030 748.3125 Z M 1030 669 " clip-rule="nonzero"/></clipPath><clipPath id="b72e77f213"><path d="M 1079 675 L 1191 675 L 1191 748.3125 L 1079 748.3125 Z M 1079 675 " clip-rule="nonzero"/></clipPath><clipPath id="21b87d6ca3"><path d="M 1133 669 L 1238.222656 669 L 1238.222656 748.3125 L 1133 748.3125 Z M 1133 669 " clip-rule="nonzero"/></clipPath></defs><rect x="-144" width="1728" fill="#ffffff" y="-80.999999" height="971.999992" fill-opacity="1"/><rect x="-144" width="1728" fill="#2d2f48" y="-80.999999" height="971.999992" fill-opacity="1"/><g transform="matrix(1, 0, 0, 1, 80, 163)"><g clip-path="url(#e0e937b264)"><g fill="#ffffff" fill-opacity="1"><g transform="translate(1.000002, 69.496208)"><g><path d="M 26.34375 -42.390625 C 21.226562 -42.390625 17.1875 -40.6875 14.21875 -37.28125 C 11.257812 -33.875 9.78125 -29.207031 9.78125 -23.28125 C 9.78125 -17.1875 11.207031 -12.476562 14.0625 -9.15625 C 16.914062 -5.832031 20.988281 -4.171875 26.28125 -4.171875 C 29.53125 -4.171875 33.234375 -4.753906 37.390625 -5.921875 L 37.390625 -1.171875 C 34.160156 0.0351562 30.179688 0.640625 25.453125 0.640625 C 18.585938 0.640625 13.289062 -1.4375 9.5625 -5.59375 C 5.84375 -9.757812 3.984375 -15.675781 3.984375 -23.34375 C 3.984375 -28.144531 4.878906 -32.347656 6.671875 -35.953125 C 8.460938 -39.566406 11.050781 -42.347656 14.4375 -44.296875 C 17.832031 -46.253906 21.820312 -47.234375 26.40625 -47.234375 C 31.289062 -47.234375 35.554688 -46.34375 39.203125 -44.5625 L 36.921875 -39.90625 C 33.390625 -41.5625 29.863281 -42.390625 26.34375 -42.390625 Z M 26.34375 -42.390625 "/></g></g></g><g fill="#ffffff" fill-opacity="1"><g transform="translate(42.153681, 69.496208)"><g/></g></g><g fill="#ffffff" fill-opacity="1"><g transform="translate(59.099313, 69.496208)"><g><path d="M 3.796875 -27.328125 L 3.796875 -31.6875 L 33.40625 -31.6875 L 33.40625 -27.328125 Z M 3.796875 -14.296875 L 3.796875 -18.671875 L 33.40625 -18.671875 L 33.40625 -14.296875 Z M 3.796875 -14.296875 "/></g></g></g><g fill="#ffffff" fill-opacity="1"><g transform="translate(96.398821, 69.496208)"><g/></g></g><g fill="#ffffff" fill-opacity="1"><g transform="translate(113.344453, 69.496208)"><g><path d="M 6.40625 0 L 6.40625 -46.5625 L 11.8125 -46.5625 L 11.8125 -4.90625 L 32.359375 -4.90625 L 32.359375 0 Z M 6.40625 0 "/></g></g></g><g fill="#ffffff" fill-opacity="1"><g transform="translate(147.20387, 69.496208)"><g/></g></g><g fill="#ffffff" fill-opacity="1"><g transform="translate(164.149503, 69.496208)"><g><path d="M 2.609375 -22.570312 L 52.90625 -22.570312 C 49.578125 -20.027344 45.273438 -15.917969 42.339844 -11.871094 L 46.253906 -9.589844 C 50.621094 -15.332031 57.144531 -21.070312 62.953125 -24.789062 C 57.144531 -28.507812 50.621094 -34.25 46.253906 -39.988281 L 42.339844 -37.707031 C 45.273438 -33.660156 49.578125 -29.550781 52.90625 -27.007812 L 2.609375 -27.007812 Z M 2.609375 -22.570312 "/></g></g></g><g fill="#ffffff" fill-opacity="1"><g transform="translate(229.383882, 69.496208)"><g/></g></g><g fill="#ffffff" fill-opacity="1"><g transform="translate(246.329515, 69.496208)"><g><path d="M 6.40625 0 L 6.40625 -46.5625 L 11.8125 -46.5625 L 11.8125 -4.90625 L 32.359375 -4.90625 L 32.359375 0 Z M 6.40625 0 "/></g></g></g><g fill="#ffffff" fill-opacity="1"><g transform="translate(280.188932, 69.496208)"><g><path d="M 3.796875 -27.328125 L 3.796875 -31.6875 L 33.40625 -31.6875 L 33.40625 -27.328125 Z M 3.796875 -14.296875 L 3.796875 -18.671875 L 33.40625 -18.671875 L 33.40625 -14.296875 Z M 3.796875 -14.296875 "/></g></g></g><g fill="#ffffff" fill-opacity="1"><g transform="translate(317.48844, 69.496208)"><g><path d="M 22.78125 0 L 17.609375 0 L 17.609375 -33.1875 C 17.609375 -35.945312 17.695312 -38.5625 17.875 -41.03125 C 17.425781 -40.582031 16.925781 -40.113281 16.375 -39.625 C 15.820312 -39.132812 13.296875 -37.0625 8.796875 -33.40625 L 5.984375 -37.046875 L 18.3125 -46.5625 L 22.78125 -46.5625 Z M 22.78125 0 "/></g></g></g><g fill="#ffffff" fill-opacity="1"><g transform="translate(354.787947, 69.496208)"><g><path d="M 23.28125 -46.5625 L 5.921875 0 L 0.640625 0 L 18 -46.5625 Z M 23.28125 -46.5625 "/></g></g></g><g fill="#ffffff" fill-opacity="1"><g transform="translate(378.741172, 69.496208)"><g><path d="M 18.609375 -47.234375 C 22.847656 -47.234375 26.207031 -46.242188 28.6875 -44.265625 C 31.175781 -42.296875 32.421875 -39.570312 32.421875 -36.09375 C 32.421875 -33.800781 31.707031 -31.707031 30.28125 -29.8125 C 28.863281 -27.925781 26.59375 -26.207031 23.46875 -24.65625 C 27.25 -22.851562 29.9375 -20.957031 31.53125 -18.96875 C 33.125 -16.976562 33.921875 -14.679688 33.921875 -12.078125 C 33.921875 -8.210938 32.570312 -5.125 29.875 -2.8125 C 27.175781 -0.507812 23.484375 0.640625 18.796875 0.640625 C 13.828125 0.640625 10.003906 -0.445312 7.328125 -2.625 C 4.648438 -4.800781 3.3125 -7.882812 3.3125 -11.875 C 3.3125 -17.207031 6.5625 -21.359375 13.0625 -24.328125 C 10.125 -25.984375 8.019531 -27.769531 6.75 -29.6875 C 5.476562 -31.613281 4.84375 -33.769531 4.84375 -36.15625 C 4.84375 -39.53125 6.085938 -42.21875 8.578125 -44.21875 C 11.078125 -46.226562 14.421875 -47.234375 18.609375 -47.234375 Z M 8.53125 -11.75 C 8.53125 -9.207031 9.414062 -7.222656 11.1875 -5.796875 C 12.96875 -4.367188 15.460938 -3.65625 18.671875 -3.65625 C 21.828125 -3.65625 24.285156 -4.398438 26.046875 -5.890625 C 27.816406 -7.378906 28.703125 -9.421875 28.703125 -12.015625 C 28.703125 -14.066406 27.875 -15.894531 26.21875 -17.5 C 24.5625 -19.101562 21.671875 -20.660156 17.546875 -22.171875 C 14.390625 -20.804688 12.097656 -19.300781 10.671875 -17.65625 C 9.242188 -16.007812 8.53125 -14.039062 8.53125 -11.75 Z M 18.53125 -42.9375 C 15.882812 -42.9375 13.804688 -42.296875 12.296875 -41.015625 C 10.785156 -39.742188 10.03125 -38.050781 10.03125 -35.9375 C 10.03125 -33.976562 10.65625 -32.296875 11.90625 -30.890625 C 13.164062 -29.492188 15.484375 -28.09375 18.859375 -26.6875 C 21.890625 -27.96875 24.035156 -29.335938 25.296875 -30.796875 C 26.566406 -32.265625 27.203125 -33.976562 27.203125 -35.9375 C 27.203125 -38.070312 26.429688 -39.769531 24.890625 -41.03125 C 23.347656 -42.300781 21.226562 -42.9375 18.53125 -42.9375 Z M 18.53125 -42.9375 "/></g></g></g><g fill="#ffffff" fill-opacity="1"><g transform="translate(416.040679, 69.496208)"><g/></g></g><g fill="#ffffff" fill-opacity="1"><g transform="translate(432.986285, 69.496208)"><g><path d="M 2.609375 -22.570312 L 52.90625 -22.570312 C 49.578125 -20.027344 45.273438 -15.917969 42.339844 -11.871094 L 46.253906 -9.589844 C 50.621094 -15.332031 57.144531 -21.070312 62.953125 -24.789062 C 57.144531 -28.507812 50.621094 -34.25 46.253906 -39.988281 L 42.339844 -37.707031 C 45.273438 -33.660156 49.578125 -29.550781 52.90625 -27.007812 L 2.609375 -27.007812 Z M 2.609375 -22.570312 "/></g></g></g><g fill="#ffffff" fill-opacity="1"><g transform="translate(498.220685, 69.496208)"><g/></g></g><g fill="#ffffff" fill-opacity="1"><g transform="translate(515.166296, 69.496208)"><g><path d="M 26.34375 -42.390625 C 21.226562 -42.390625 17.1875 -40.6875 14.21875 -37.28125 C 11.257812 -33.875 9.78125 -29.207031 9.78125 -23.28125 C 9.78125 -17.1875 11.207031 -12.476562 14.0625 -9.15625 C 16.914062 -5.832031 20.988281 -4.171875 26.28125 -4.171875 C 29.53125 -4.171875 33.234375 -4.753906 37.390625 -5.921875 L 37.390625 -1.171875 C 34.160156 0.0351562 30.179688 0.640625 25.453125 0.640625 C 18.585938 0.640625 13.289062 -1.4375 9.5625 -5.59375 C 5.84375 -9.757812 3.984375 -15.675781 3.984375 -23.34375 C 3.984375 -28.144531 4.878906 -32.347656 6.671875 -35.953125 C 8.460938 -39.566406 11.050781 -42.347656 14.4375 -44.296875 C 17.832031 -46.253906 21.820312 -47.234375 26.40625 -47.234375 C 31.289062 -47.234375 35.554688 -46.34375 39.203125 -44.5625 L 36.921875 -39.90625 C 33.390625 -41.5625 29.863281 -42.390625 26.34375 -42.390625 Z M 26.34375 -42.390625 "/></g></g></g><g fill="#ffffff" fill-opacity="1"><g transform="translate(556.319995, 69.496208)"><g><path d="M 3.796875 -27.328125 L 3.796875 -31.6875 L 33.40625 -31.6875 L 33.40625 -27.328125 Z M 3.796875 -14.296875 L 3.796875 -18.671875 L 33.40625 -18.671875 L 33.40625 -14.296875 Z M 3.796875 -14.296875 "/></g></g></g><g fill="#ffffff" fill-opacity="1"><g transform="translate(593.619503, 69.496208)"><g><path d="M 22.78125 0 L 17.609375 0 L 17.609375 -33.1875 C 17.609375 -35.945312 17.695312 -38.5625 17.875 -41.03125 C 17.425781 -40.582031 16.925781 -40.113281 16.375 -39.625 C 15.820312 -39.132812 13.296875 -37.0625 8.796875 -33.40625 L 5.984375 -37.046875 L 18.3125 -46.5625 L 22.78125 -46.5625 Z M 22.78125 0 "/></g></g></g><g fill="#ffffff" fill-opacity="1"><g transform="translate(630.919011, 69.496208)"><g><path d="M 23.28125 -46.5625 L 5.921875 0 L 0.640625 0 L 18 -46.5625 Z M 23.28125 -46.5625 "/></g></g></g><g fill="#ffffff" fill-opacity="1"><g transform="translate(654.872235, 69.496208)"><g><path d="M 18.609375 -47.234375 C 22.847656 -47.234375 26.207031 -46.242188 28.6875 -44.265625 C 31.175781 -42.296875 32.421875 -39.570312 32.421875 -36.09375 C 32.421875 -33.800781 31.707031 -31.707031 30.28125 -29.8125 C 28.863281 -27.925781 26.59375 -26.207031 23.46875 -24.65625 C 27.25 -22.851562 29.9375 -20.957031 31.53125 -18.96875 C 33.125 -16.976562 33.921875 -14.679688 33.921875 -12.078125 C 33.921875 -8.210938 32.570312 -5.125 29.875 -2.8125 C 27.175781 -0.507812 23.484375 0.640625 18.796875 0.640625 C 13.828125 0.640625 10.003906 -0.445312 7.328125 -2.625 C 4.648438 -4.800781 3.3125 -7.882812 3.3125 -11.875 C 3.3125 -17.207031 6.5625 -21.359375 13.0625 -24.328125 C 10.125 -25.984375 8.019531 -27.769531 6.75 -29.6875 C 5.476562 -31.613281 4.84375 -33.769531 4.84375 -36.15625 C 4.84375 -39.53125 6.085938 -42.21875 8.578125 -44.21875 C 11.078125 -46.226562 14.421875 -47.234375 18.609375 -47.234375 Z M 8.53125 -11.75 C 8.53125 -9.207031 9.414062 -7.222656 11.1875 -5.796875 C 12.96875 -4.367188 15.460938 -3.65625 18.671875 -3.65625 C 21.828125 -3.65625 24.285156 -4.398438 26.046875 -5.890625 C 27.816406 -7.378906 28.703125 -9.421875 28.703125 -12.015625 C 28.703125 -14.066406 27.875 -15.894531 26.21875 -17.5 C 24.5625 -19.101562 21.671875 -20.660156 17.546875 -22.171875 C 14.390625 -20.804688 12.097656 -19.300781 10.671875 -17.65625 C 9.242188 -16.007812 8.53125 -14.039062 8.53125 -11.75 Z M 18.53125 -42.9375 C 15.882812 -42.9375 13.804688 -42.296875 12.296875 -41.015625 C 10.785156 -39.742188 10.03125 -38.050781 10.03125 -35.9375 C 10.03125 -33.976562 10.65625 -32.296875 11.90625 -30.890625 C 13.164062 -29.492188 15.484375 -28.09375 18.859375 -26.6875 C 21.890625 -27.96875 24.035156 -29.335938 25.296875 -30.796875 C 26.566406 -32.265625 27.203125 -33.976562 27.203125 -35.9375 C 27.203125 -38.070312 26.429688 -39.769531 24.890625 -41.03125 C 23.347656 -42.300781 21.226562 -42.9375 18.53125 -42.9375 Z M 18.53125 -42.9375 "/></g></g></g></g></g><g transform="matrix(1, 0, 0, 1, 80, 255)"><g clip-path="url(#5fc5ee1bd9)"><g fill="#ffffff" fill-opacity="1"><g transform="translate(1.000002, 69.931125)"><g><path d="M 26.34375 -42.390625 C 21.226562 -42.390625 17.1875 -40.6875 14.21875 -37.28125 C 11.257812 -33.875 9.78125 -29.207031 9.78125 -23.28125 C 9.78125 -17.1875 11.207031 -12.476562 14.0625 -9.15625 C 16.914062 -5.832031 20.988281 -4.171875 26.28125 -4.171875 C 29.53125 -4.171875 33.234375 -4.753906 37.390625 -5.921875 L 37.390625 -1.171875 C 34.160156 0.0351562 30.179688 0.640625 25.453125 0.640625 C 18.585938 0.640625 13.289062 -1.4375 9.5625 -5.59375 C 5.84375 -9.757812 3.984375 -15.675781 3.984375 -23.34375 C 3.984375 -28.144531 4.878906 -32.347656 6.671875 -35.953125 C 8.460938 -39.566406 11.050781 -42.347656 14.4375 -44.296875 C 17.832031 -46.253906 21.820312 -47.234375 26.40625 -47.234375 C 31.289062 -47.234375 35.554688 -46.34375 39.203125 -44.5625 L 36.921875 -39.90625 C 33.390625 -41.5625 29.863281 -42.390625 26.34375 -42.390625 Z M 26.34375 -42.390625 "/></g></g></g><g fill="#ffffff" fill-opacity="1"><g transform="translate(42.153681, 69.931125)"><g><path d="M 33.796875 0 L 3.1875 0 L 3.1875 -4.5625 L 15.453125 -16.875 C 19.179688 -20.65625 21.640625 -23.351562 22.828125 -24.96875 C 24.023438 -26.582031 24.921875 -28.15625 25.515625 -29.6875 C 26.109375 -31.21875 26.40625 -32.863281 26.40625 -34.625 C 26.40625 -37.101562 25.648438 -39.070312 24.140625 -40.53125 C 22.640625 -41.988281 20.550781 -42.71875 17.875 -42.71875 C 15.9375 -42.71875 14.101562 -42.394531 12.375 -41.75 C 10.644531 -41.113281 8.71875 -39.957031 6.59375 -38.28125 L 3.796875 -41.890625 C 8.078125 -45.453125 12.75 -47.234375 17.8125 -47.234375 C 22.1875 -47.234375 25.613281 -46.113281 28.09375 -43.875 C 30.582031 -41.632812 31.828125 -38.625 31.828125 -34.84375 C 31.828125 -31.894531 31 -28.972656 29.34375 -26.078125 C 27.6875 -23.191406 24.582031 -19.539062 20.03125 -15.125 L 9.84375 -5.15625 L 9.84375 -4.90625 L 33.796875 -4.90625 Z M 33.796875 0 "/></g></g></g><g fill="#ffffff" fill-opacity="1"><g transform="translate(79.453188, 69.931125)"><g/></g></g><g fill="#ffffff" fill-opacity="1"><g transform="translate(96.398821, 69.931125)"><g><path d="M 3.796875 -27.328125 L 3.796875 -31.6875 L 33.40625 -31.6875 L 33.40625 -27.328125 Z M 3.796875 -14.296875 L 3.796875 -18.671875 L 33.40625 -18.671875 L 33.40625 -14.296875 Z M 3.796875 -14.296875 "/></g></g></g><g fill="#ffffff" fill-opacity="1"><g transform="translate(133.698328, 69.931125)"><g/></g></g><g fill="#ffffff" fill-opacity="1"><g transform="translate(150.643961, 69.931125)"><g><path d="M 6.40625 0 L 6.40625 -46.5625 L 11.8125 -46.5625 L 11.8125 -4.90625 L 32.359375 -4.90625 L 32.359375 0 Z M 6.40625 0 "/></g></g></g><g fill="#ffffff" fill-opacity="1"><g transform="translate(184.503378, 69.931125)"><g><path d="M 20.921875 -49.5625 L 19.5625 -36.984375 L 32.234375 -40.515625 L 33.0625 -34.71875 L 20.921875 -33.734375 L 28.828125 -23.34375 L 23.34375 -20.359375 L 17.734375 -31.890625 L 12.640625 -20.359375 L 7.046875 -23.34375 L 14.75 -33.734375 L 2.734375 -34.71875 L 3.65625 -40.515625 L 16.125 -36.984375 L 14.75 -49.5625 Z M 20.921875 -49.5625 "/></g></g></g><g fill="#ffffff" fill-opacity="1"><g transform="translate(220.496909, 69.931125)"><g><path d="M 33.796875 0 L 3.1875 0 L 3.1875 -4.5625 L 15.453125 -16.875 C 19.179688 -20.65625 21.640625 -23.351562 22.828125 -24.96875 C 24.023438 -26.582031 24.921875 -28.15625 25.515625 -29.6875 C 26.109375 -31.21875 26.40625 -32.863281 26.40625 -34.625 C 26.40625 -37.101562 25.648438 -39.070312 24.140625 -40.53125 C 22.640625 -41.988281 20.550781 -42.71875 17.875 -42.71875 C 15.9375 -42.71875 14.101562 -42.394531 12.375 -41.75 C 10.644531 -41.113281 8.71875 -39.957031 6.59375 -38.28125 L 3.796875 -41.890625 C 8.078125 -45.453125 12.75 -47.234375 17.8125 -47.234375 C 22.1875 -47.234375 25.613281 -46.113281 28.09375 -43.875 C 30.582031 -41.632812 31.828125 -38.625 31.828125 -34.84375 C 31.828125 -31.894531 31 -28.972656 29.34375 -26.078125 C 27.6875 -23.191406 24.582031 -19.539062 20.03125 -15.125 L 9.84375 -5.15625 L 9.84375 -4.90625 L 33.796875 -4.90625 Z M 33.796875 0 "/></g></g></g><g fill="#ffffff" fill-opacity="1"><g transform="translate(257.796417, 69.931125)"><g/></g></g><g fill="#ffffff" fill-opacity="1"><g transform="translate(274.742072, 69.931125)"><g><path d="M 2.609375 -22.570312 L 52.90625 -22.570312 C 49.578125 -20.027344 45.273438 -15.917969 42.339844 -11.871094 L 46.253906 -9.589844 C 50.621094 -15.332031 57.144531 -21.070312 62.953125 -24.789062 C 57.144531 -28.507812 50.621094 -34.25 46.253906 -39.988281 L 42.339844 -37.707031 C 45.273438 -33.660156 49.578125 -29.550781 52.90625 -27.007812 L 2.609375 -27.007812 Z M 2.609375 -22.570312 "/></g></g></g><g fill="#ffffff" fill-opacity="1"><g transform="translate(339.976466, 69.931125)"><g/></g></g><g fill="#ffffff" fill-opacity="1"><g transform="translate(356.922099, 69.931125)"><g><path d="M 6.40625 0 L 6.40625 -46.5625 L 11.8125 -46.5625 L 11.8125 -4.90625 L 32.359375 -4.90625 L 32.359375 0 Z M 6.40625 0 "/></g></g></g><g fill="#ffffff" fill-opacity="1"><g transform="translate(390.781516, 69.931125)"><g><path d="M 3.796875 -27.328125 L 3.796875 -31.6875 L 33.40625 -31.6875 L 33.40625 -27.328125 Z M 3.796875 -14.296875 L 3.796875 -18.671875 L 33.40625 -18.671875 L 33.40625 -14.296875 Z M 3.796875 -14.296875 "/></g></g></g><g fill="#ffffff" fill-opacity="1"><g transform="translate(428.081023, 69.931125)"><g><path d="M 22.78125 0 L 17.609375 0 L 17.609375 -33.1875 C 17.609375 -35.945312 17.695312 -38.5625 17.875 -41.03125 C 17.425781 -40.582031 16.925781 -40.113281 16.375 -39.625 C 15.820312 -39.132812 13.296875 -37.0625 8.796875 -33.40625 L 5.984375 -37.046875 L 18.3125 -46.5625 L 22.78125 -46.5625 Z M 22.78125 0 "/></g></g></g><g fill="#ffffff" fill-opacity="1"><g transform="translate(465.380531, 69.931125)"><g><path d="M 23.28125 -46.5625 L 5.921875 0 L 0.640625 0 L 18 -46.5625 Z M 23.28125 -46.5625 "/></g></g></g><g fill="#ffffff" fill-opacity="1"><g transform="translate(489.333756, 69.931125)"><g><path d="M 18.609375 -47.234375 C 22.847656 -47.234375 26.207031 -46.242188 28.6875 -44.265625 C 31.175781 -42.296875 32.421875 -39.570312 32.421875 -36.09375 C 32.421875 -33.800781 31.707031 -31.707031 30.28125 -29.8125 C 28.863281 -27.925781 26.59375 -26.207031 23.46875 -24.65625 C 27.25 -22.851562 29.9375 -20.957031 31.53125 -18.96875 C 33.125 -16.976562 33.921875 -14.679688 33.921875 -12.078125 C 33.921875 -8.210938 32.570312 -5.125 29.875 -2.8125 C 27.175781 -0.507812 23.484375 0.640625 18.796875 0.640625 C 13.828125 0.640625 10.003906 -0.445312 7.328125 -2.625 C 4.648438 -4.800781 3.3125 -7.882812 3.3125 -11.875 C 3.3125 -17.207031 6.5625 -21.359375 13.0625 -24.328125 C 10.125 -25.984375 8.019531 -27.769531 6.75 -29.6875 C 5.476562 -31.613281 4.84375 -33.769531 4.84375 -36.15625 C 4.84375 -39.53125 6.085938 -42.21875 8.578125 -44.21875 C 11.078125 -46.226562 14.421875 -47.234375 18.609375 -47.234375 Z M 8.53125 -11.75 C 8.53125 -9.207031 9.414062 -7.222656 11.1875 -5.796875 C 12.96875 -4.367188 15.460938 -3.65625 18.671875 -3.65625 C 21.828125 -3.65625 24.285156 -4.398438 26.046875 -5.890625 C 27.816406 -7.378906 28.703125 -9.421875 28.703125 -12.015625 C 28.703125 -14.066406 27.875 -15.894531 26.21875 -17.5 C 24.5625 -19.101562 21.671875 -20.660156 17.546875 -22.171875 C 14.390625 -20.804688 12.097656 -19.300781 10.671875 -17.65625 C 9.242188 -16.007812 8.53125 -14.039062 8.53125 -11.75 Z M 18.53125 -42.9375 C 15.882812 -42.9375 13.804688 -42.296875 12.296875 -41.015625 C 10.785156 -39.742188 10.03125 -38.050781 10.03125 -35.9375 C 10.03125 -33.976562 10.65625 -32.296875 11.90625 -30.890625 C 13.164062 -29.492188 15.484375 -28.09375 18.859375 -26.6875 C 21.890625 -27.96875 24.035156 -29.335938 25.296875 -30.796875 C 26.566406 -32.265625 27.203125 -33.976562 27.203125 -35.9375 C 27.203125 -38.070312 26.429688 -39.769531 24.890625 -41.03125 C 23.347656 -42.300781 21.226562 -42.9375 18.53125 -42.9375 Z M 18.53125 -42.9375 "/></g></g></g><g fill="#ffffff" fill-opacity="1"><g transform="translate(526.633263, 69.931125)"><g/></g></g><g fill="#ffffff" fill-opacity="1"><g transform="translate(543.578917, 69.931125)"><g><path d="M 2.609375 -22.570312 L 52.90625 -22.570312 C 49.578125 -20.027344 45.273438 -15.917969 42.339844 -11.871094 L 46.253906 -9.589844 C 50.621094 -15.332031 57.144531 -21.070312 62.953125 -24.789062 C 57.144531 -28.507812 50.621094 -34.25 46.253906 -39.988281 L 42.339844 -37.707031 C 45.273438 -33.660156 49.578125 -29.550781 52.90625 -27.007812 L 2.609375 -27.007812 Z M 2.609375 -22.570312 "/></g></g></g><g fill="#ffffff" fill-opacity="1"><g transform="translate(608.813318, 69.931125)"><g/></g></g><g fill="#ffffff" fill-opacity="1"><g transform="translate(625.758929, 69.931125)"><g><path d="M 26.34375 -42.390625 C 21.226562 -42.390625 17.1875 -40.6875 14.21875 -37.28125 C 11.257812 -33.875 9.78125 -29.207031 9.78125 -23.28125 C 9.78125 -17.1875 11.207031 -12.476562 14.0625 -9.15625 C 16.914062 -5.832031 20.988281 -4.171875 26.28125 -4.171875 C 29.53125 -4.171875 33.234375 -4.753906 37.390625 -5.921875 L 37.390625 -1.171875 C 34.160156 0.0351562 30.179688 0.640625 25.453125 0.640625 C 18.585938 0.640625 13.289062 -1.4375 9.5625 -5.59375 C 5.84375 -9.757812 3.984375 -15.675781 3.984375 -23.34375 C 3.984375 -28.144531 4.878906 -32.347656 6.671875 -35.953125 C 8.460938 -39.566406 11.050781 -42.347656 14.4375 -44.296875 C 17.832031 -46.253906 21.820312 -47.234375 26.40625 -47.234375 C 31.289062 -47.234375 35.554688 -46.34375 39.203125 -44.5625 L 36.921875 -39.90625 C 33.390625 -41.5625 29.863281 -42.390625 26.34375 -42.390625 Z M 26.34375 -42.390625 "/></g></g></g><g fill="#ffffff" fill-opacity="1"><g transform="translate(666.912628, 69.931125)"><g><path d="M 3.796875 -27.328125 L 3.796875 -31.6875 L 33.40625 -31.6875 L 33.40625 -27.328125 Z M 3.796875 -14.296875 L 3.796875 -18.671875 L 33.40625 -18.671875 L 33.40625 -14.296875 Z M 3.796875 -14.296875 "/></g></g></g><g fill="#ffffff" fill-opacity="1"><g transform="translate(704.212136, 69.931125)"><g><path d="M 22.78125 0 L 17.609375 0 L 17.609375 -33.1875 C 17.609375 -35.945312 17.695312 -38.5625 17.875 -41.03125 C 17.425781 -40.582031 16.925781 -40.113281 16.375 -39.625 C 15.820312 -39.132812 13.296875 -37.0625 8.796875 -33.40625 L 5.984375 -37.046875 L 18.3125 -46.5625 L 22.78125 -46.5625 Z M 22.78125 0 "/></g></g></g><g fill="#ffffff" fill-opacity="1"><g transform="translate(741.511644, 69.931125)"><g><path d="M 23.28125 -46.5625 L 5.921875 0 L 0.640625 0 L 18 -46.5625 Z M 23.28125 -46.5625 "/></g></g></g><g fill="#ffffff" fill-opacity="1"><g transform="translate(765.464868, 69.931125)"><g><path d="M 36 -10.703125 L 29.078125 -10.703125 L 29.078125 0 L 24.015625 0 L 24.015625 -10.703125 L 1.375 -10.703125 L 1.375 -15.328125 L 23.46875 -46.828125 L 29.078125 -46.828125 L 29.078125 -15.515625 L 36 -15.515625 Z M 24.015625 -15.515625 L 24.015625 -31 C 24.015625 -34.03125 24.117188 -37.457031 24.328125 -41.28125 L 24.078125 -41.28125 C 23.054688 -39.238281 22.101562 -37.550781 21.21875 -36.21875 L 6.65625 -15.515625 Z M 24.015625 -15.515625 "/></g></g></g></g></g><g transform="matrix(1, 0, 0, 1, 80, 348)"><g clip-path="url(#6093688b8f)"><g fill="#ffffff" fill-opacity="1"><g transform="translate(1.000002, 69.422996)"><g><path d="M 26.34375 -42.390625 C 21.226562 -42.390625 17.1875 -40.6875 14.21875 -37.28125 C 11.257812 -33.875 9.78125 -29.207031 9.78125 -23.28125 C 9.78125 -17.1875 11.207031 -12.476562 14.0625 -9.15625 C 16.914062 -5.832031 20.988281 -4.171875 26.28125 -4.171875 C 29.53125 -4.171875 33.234375 -4.753906 37.390625 -5.921875 L 37.390625 -1.171875 C 34.160156 0.0351562 30.179688 0.640625 25.453125 0.640625 C 18.585938 0.640625 13.289062 -1.4375 9.5625 -5.59375 C 5.84375 -9.757812 3.984375 -15.675781 3.984375 -23.34375 C 3.984375 -28.144531 4.878906 -32.347656 6.671875 -35.953125 C 8.460938 -39.566406 11.050781 -42.347656 14.4375 -44.296875 C 17.832031 -46.253906 21.820312 -47.234375 26.40625 -47.234375 C 31.289062 -47.234375 35.554688 -46.34375 39.203125 -44.5625 L 36.921875 -39.90625 C 33.390625 -41.5625 29.863281 -42.390625 26.34375 -42.390625 Z M 26.34375 -42.390625 "/></g></g></g><g fill="#ffffff" fill-opacity="1"><g transform="translate(42.153681, 69.422996)"><g><path d="M 23.28125 -46.5625 L 5.921875 0 L 0.640625 0 L 18 -46.5625 Z M 23.28125 -46.5625 "/></g></g></g><g fill="#ffffff" fill-opacity="1"><g transform="translate(66.106905, 69.422996)"><g><path d="M 33.796875 0 L 3.1875 0 L 3.1875 -4.5625 L 15.453125 -16.875 C 19.179688 -20.65625 21.640625 -23.351562 22.828125 -24.96875 C 24.023438 -26.582031 24.921875 -28.15625 25.515625 -29.6875 C 26.109375 -31.21875 26.40625 -32.863281 26.40625 -34.625 C 26.40625 -37.101562 25.648438 -39.070312 24.140625 -40.53125 C 22.640625 -41.988281 20.550781 -42.71875 17.875 -42.71875 C 15.9375 -42.71875 14.101562 -42.394531 12.375 -41.75 C 10.644531 -41.113281 8.71875 -39.957031 6.59375 -38.28125 L 3.796875 -41.890625 C 8.078125 -45.453125 12.75 -47.234375 17.8125 -47.234375 C 22.1875 -47.234375 25.613281 -46.113281 28.09375 -43.875 C 30.582031 -41.632812 31.828125 -38.625 31.828125 -34.84375 C 31.828125 -31.894531 31 -28.972656 29.34375 -26.078125 C 27.6875 -23.191406 24.582031 -19.539062 20.03125 -15.125 L 9.84375 -5.15625 L 9.84375 -4.90625 L 33.796875 -4.90625 Z M 33.796875 0 "/></g></g></g><g fill="#ffffff" fill-opacity="1"><g transform="translate(103.406413, 69.422996)"><g/></g></g><g fill="#ffffff" fill-opacity="1"><g transform="translate(120.352045, 69.422996)"><g><path d="M 3.796875 -27.328125 L 3.796875 -31.6875 L 33.40625 -31.6875 L 33.40625 -27.328125 Z M 3.796875 -14.296875 L 3.796875 -18.671875 L 33.40625 -18.671875 L 33.40625 -14.296875 Z M 3.796875 -14.296875 "/></g></g></g><g fill="#ffffff" fill-opacity="1"><g transform="translate(157.651553, 69.422996)"><g/></g></g><g fill="#ffffff" fill-opacity="1"><g transform="translate(174.597185, 69.422996)"><g><path d="M 6.40625 0 L 6.40625 -46.5625 L 11.8125 -46.5625 L 11.8125 -4.90625 L 32.359375 -4.90625 L 32.359375 0 Z M 6.40625 0 "/></g></g></g><g fill="#ffffff" fill-opacity="1"><g transform="translate(208.456602, 69.422996)"><g><path d="M 23.28125 -46.5625 L 5.921875 0 L 0.640625 0 L 18 -46.5625 Z M 23.28125 -46.5625 "/></g></g></g><g fill="#ffffff" fill-opacity="1"><g transform="translate(232.409827, 69.422996)"><g><path d="M 33.796875 0 L 3.1875 0 L 3.1875 -4.5625 L 15.453125 -16.875 C 19.179688 -20.65625 21.640625 -23.351562 22.828125 -24.96875 C 24.023438 -26.582031 24.921875 -28.15625 25.515625 -29.6875 C 26.109375 -31.21875 26.40625 -32.863281 26.40625 -34.625 C 26.40625 -37.101562 25.648438 -39.070312 24.140625 -40.53125 C 22.640625 -41.988281 20.550781 -42.71875 17.875 -42.71875 C 15.9375 -42.71875 14.101562 -42.394531 12.375 -41.75 C 10.644531 -41.113281 8.71875 -39.957031 6.59375 -38.28125 L 3.796875 -41.890625 C 8.078125 -45.453125 12.75 -47.234375 17.8125 -47.234375 C 22.1875 -47.234375 25.613281 -46.113281 28.09375 -43.875 C 30.582031 -41.632812 31.828125 -38.625 31.828125 -34.84375 C 31.828125 -31.894531 31 -28.972656 29.34375 -26.078125 C 27.6875 -23.191406 24.582031 -19.539062 20.03125 -15.125 L 9.84375 -5.15625 L 9.84375 -4.90625 L 33.796875 -4.90625 Z M 33.796875 0 "/></g></g></g><g fill="#ffffff" fill-opacity="1"><g transform="translate(269.709335, 69.422996)"><g/></g></g><g fill="#ffffff" fill-opacity="1"><g transform="translate(286.654966, 69.422996)"><g><path d="M 2.609375 -22.570312 L 52.90625 -22.570312 C 49.578125 -20.027344 45.273438 -15.917969 42.339844 -11.871094 L 46.253906 -9.589844 C 50.621094 -15.332031 57.144531 -21.070312 62.953125 -24.789062 C 57.144531 -28.507812 50.621094 -34.25 46.253906 -39.988281 L 42.339844 -37.707031 C 45.273438 -33.660156 49.578125 -29.550781 52.90625 -27.007812 L 2.609375 -27.007812 Z M 2.609375 -22.570312 "/></g></g></g><g fill="#ffffff" fill-opacity="1"><g transform="translate(351.889345, 69.422996)"><g/></g></g><g fill="#ffffff" fill-opacity="1"><g transform="translate(368.834999, 69.422996)"><g><path d="M 6.40625 0 L 6.40625 -46.5625 L 11.8125 -46.5625 L 11.8125 -4.90625 L 32.359375 -4.90625 L 32.359375 0 Z M 6.40625 0 "/></g></g></g><g fill="#ffffff" fill-opacity="1"><g transform="translate(402.694394, 69.422996)"><g><path d="M 3.796875 -27.328125 L 3.796875 -31.6875 L 33.40625 -31.6875 L 33.40625 -27.328125 Z M 3.796875 -14.296875 L 3.796875 -18.671875 L 33.40625 -18.671875 L 33.40625 -14.296875 Z M 3.796875 -14.296875 "/></g></g></g><g fill="#ffffff" fill-opacity="1"><g transform="translate(439.993902, 69.422996)"><g><path d="M 22.78125 0 L 17.609375 0 L 17.609375 -33.1875 C 17.609375 -35.945312 17.695312 -38.5625 17.875 -41.03125 C 17.425781 -40.582031 16.925781 -40.113281 16.375 -39.625 C 15.820312 -39.132812 13.296875 -37.0625 8.796875 -33.40625 L 5.984375 -37.046875 L 18.3125 -46.5625 L 22.78125 -46.5625 Z M 22.78125 0 "/></g></g></g><g fill="#ffffff" fill-opacity="1"><g transform="translate(477.29341, 69.422996)"><g><path d="M 23.28125 -46.5625 L 5.921875 0 L 0.640625 0 L 18 -46.5625 Z M 23.28125 -46.5625 "/></g></g></g><g fill="#ffffff" fill-opacity="1"><g transform="translate(501.246634, 69.422996)"><g><path d="M 18.609375 -47.234375 C 22.847656 -47.234375 26.207031 -46.242188 28.6875 -44.265625 C 31.175781 -42.296875 32.421875 -39.570312 32.421875 -36.09375 C 32.421875 -33.800781 31.707031 -31.707031 30.28125 -29.8125 C 28.863281 -27.925781 26.59375 -26.207031 23.46875 -24.65625 C 27.25 -22.851562 29.9375 -20.957031 31.53125 -18.96875 C 33.125 -16.976562 33.921875 -14.679688 33.921875 -12.078125 C 33.921875 -8.210938 32.570312 -5.125 29.875 -2.8125 C 27.175781 -0.507812 23.484375 0.640625 18.796875 0.640625 C 13.828125 0.640625 10.003906 -0.445312 7.328125 -2.625 C 4.648438 -4.800781 3.3125 -7.882812 3.3125 -11.875 C 3.3125 -17.207031 6.5625 -21.359375 13.0625 -24.328125 C 10.125 -25.984375 8.019531 -27.769531 6.75 -29.6875 C 5.476562 -31.613281 4.84375 -33.769531 4.84375 -36.15625 C 4.84375 -39.53125 6.085938 -42.21875 8.578125 -44.21875 C 11.078125 -46.226562 14.421875 -47.234375 18.609375 -47.234375 Z M 8.53125 -11.75 C 8.53125 -9.207031 9.414062 -7.222656 11.1875 -5.796875 C 12.96875 -4.367188 15.460938 -3.65625 18.671875 -3.65625 C 21.828125 -3.65625 24.285156 -4.398438 26.046875 -5.890625 C 27.816406 -7.378906 28.703125 -9.421875 28.703125 -12.015625 C 28.703125 -14.066406 27.875 -15.894531 26.21875 -17.5 C 24.5625 -19.101562 21.671875 -20.660156 17.546875 -22.171875 C 14.390625 -20.804688 12.097656 -19.300781 10.671875 -17.65625 C 9.242188 -16.007812 8.53125 -14.039062 8.53125 -11.75 Z M 18.53125 -42.9375 C 15.882812 -42.9375 13.804688 -42.296875 12.296875 -41.015625 C 10.785156 -39.742188 10.03125 -38.050781 10.03125 -35.9375 C 10.03125 -33.976562 10.65625 -32.296875 11.90625 -30.890625 C 13.164062 -29.492188 15.484375 -28.09375 18.859375 -26.6875 C 21.890625 -27.96875 24.035156 -29.335938 25.296875 -30.796875 C 26.566406 -32.265625 27.203125 -33.976562 27.203125 -35.9375 C 27.203125 -38.070312 26.429688 -39.769531 24.890625 -41.03125 C 23.347656 -42.300781 21.226562 -42.9375 18.53125 -42.9375 Z M 18.53125 -42.9375 "/></g></g></g><g fill="#ffffff" fill-opacity="1"><g transform="translate(538.546142, 69.422996)"><g/></g></g><g fill="#ffffff" fill-opacity="1"><g transform="translate(555.491748, 69.422996)"><g><path d="M 2.609375 -22.570312 L 52.90625 -22.570312 C 49.578125 -20.027344 45.273438 -15.917969 42.339844 -11.871094 L 46.253906 -9.589844 C 50.621094 -15.332031 57.144531 -21.070312 62.953125 -24.789062 C 57.144531 -28.507812 50.621094 -34.25 46.253906 -39.988281 L 42.339844 -37.707031 C 45.273438 -33.660156 49.578125 -29.550781 52.90625 -27.007812 L 2.609375 -27.007812 Z M 2.609375 -22.570312 "/></g></g></g><g fill="#ffffff" fill-opacity="1"><g transform="translate(620.726148, 69.422996)"><g/></g></g><g fill="#ffffff" fill-opacity="1"><g transform="translate(637.671759, 69.422996)"><g><path d="M 26.34375 -42.390625 C 21.226562 -42.390625 17.1875 -40.6875 14.21875 -37.28125 C 11.257812 -33.875 9.78125 -29.207031 9.78125 -23.28125 C 9.78125 -17.1875 11.207031 -12.476562 14.0625 -9.15625 C 16.914062 -5.832031 20.988281 -4.171875 26.28125 -4.171875 C 29.53125 -4.171875 33.234375 -4.753906 37.390625 -5.921875 L 37.390625 -1.171875 C 34.160156 0.0351562 30.179688 0.640625 25.453125 0.640625 C 18.585938 0.640625 13.289062 -1.4375 9.5625 -5.59375 C 5.84375 -9.757812 3.984375 -15.675781 3.984375 -23.34375 C 3.984375 -28.144531 4.878906 -32.347656 6.671875 -35.953125 C 8.460938 -39.566406 11.050781 -42.347656 14.4375 -44.296875 C 17.832031 -46.253906 21.820312 -47.234375 26.40625 -47.234375 C 31.289062 -47.234375 35.554688 -46.34375 39.203125 -44.5625 L 36.921875 -39.90625 C 33.390625 -41.5625 29.863281 -42.390625 26.34375 -42.390625 Z M 26.34375 -42.390625 "/></g></g></g><g fill="#ffffff" fill-opacity="1"><g transform="translate(678.825458, 69.422996)"><g><path d="M 3.796875 -27.328125 L 3.796875 -31.6875 L 33.40625 -31.6875 L 33.40625 -27.328125 Z M 3.796875 -14.296875 L 3.796875 -18.671875 L 33.40625 -18.671875 L 33.40625 -14.296875 Z M 3.796875 -14.296875 "/></g></g></g><g fill="#ffffff" fill-opacity="1"><g transform="translate(716.124966, 69.422996)"><g><path d="M 22.78125 0 L 17.609375 0 L 17.609375 -33.1875 C 17.609375 -35.945312 17.695312 -38.5625 17.875 -41.03125 C 17.425781 -40.582031 16.925781 -40.113281 16.375 -39.625 C 15.820312 -39.132812 13.296875 -37.0625 8.796875 -33.40625 L 5.984375 -37.046875 L 18.3125 -46.5625 L 22.78125 -46.5625 Z M 22.78125 0 "/></g></g></g><g fill="#ffffff" fill-opacity="1"><g transform="translate(753.424474, 69.422996)"><g><path d="M 23.28125 -46.5625 L 5.921875 0 L 0.640625 0 L 18 -46.5625 Z M 23.28125 -46.5625 "/></g></g></g><g fill="#ffffff" fill-opacity="1"><g transform="translate(777.377698, 69.422996)"><g><path d="M 22.78125 0 L 17.609375 0 L 17.609375 -33.1875 C 17.609375 -35.945312 17.695312 -38.5625 17.875 -41.03125 C 17.425781 -40.582031 16.925781 -40.113281 16.375 -39.625 C 15.820312 -39.132812 13.296875 -37.0625 8.796875 -33.40625 L 5.984375 -37.046875 L 18.3125 -46.5625 L 22.78125 -46.5625 Z M 22.78125 0 "/></g></g></g><g fill="#ffffff" fill-opacity="1"><g transform="translate(814.677206, 69.422996)"><g><path d="M 3.734375 -19.90625 C 3.734375 -29.0625 5.507812 -35.90625 9.0625 -40.4375 C 12.613281 -44.96875 17.875 -47.234375 24.84375 -47.234375 C 27.238281 -47.234375 29.128906 -47.03125 30.515625 -46.625 L 30.515625 -42.078125 C 28.878906 -42.609375 27.007812 -42.875 24.90625 -42.875 C 19.914062 -42.875 16.101562 -41.316406 13.46875 -38.203125 C 10.84375 -35.097656 9.398438 -30.210938 9.140625 -23.546875 L 9.53125 -23.546875 C 11.863281 -27.191406 15.554688 -29.015625 20.609375 -29.015625 C 24.796875 -29.015625 28.09375 -27.75 30.5 -25.21875 C 32.90625 -22.695312 34.109375 -19.269531 34.109375 -14.9375 C 34.109375 -10.09375 32.785156 -6.285156 30.140625 -3.515625 C 27.503906 -0.742188 23.9375 0.640625 19.4375 0.640625 C 14.613281 0.640625 10.789062 -1.164062 7.96875 -4.78125 C 5.144531 -8.40625 3.734375 -13.445312 3.734375 -19.90625 Z M 19.359375 -3.859375 C 22.378906 -3.859375 24.722656 -4.804688 26.390625 -6.703125 C 28.054688 -8.609375 28.890625 -11.351562 28.890625 -14.9375 C 28.890625 -18.019531 28.113281 -20.441406 26.5625 -22.203125 C 25.007812 -23.960938 22.695312 -24.84375 19.625 -24.84375 C 17.707031 -24.84375 15.953125 -24.445312 14.359375 -23.65625 C 12.773438 -22.875 11.507812 -21.789062 10.5625 -20.40625 C 9.613281 -19.03125 9.140625 -17.601562 9.140625 -16.125 C 9.140625 -13.9375 9.5625 -11.894531 10.40625 -10 C 11.257812 -8.113281 12.46875 -6.617188 14.03125 -5.515625 C 15.59375 -4.410156 17.367188 -3.859375 19.359375 -3.859375 Z M 19.359375 -3.859375 "/></g></g></g><g fill="#ffffff" fill-opacity="1"><g transform="translate(1.000002, 160.290146)"><g><path d="M 26.34375 -42.390625 C 21.226562 -42.390625 17.1875 -40.6875 14.21875 -37.28125 C 11.257812 -33.875 9.78125 -29.207031 9.78125 -23.28125 C 9.78125 -17.1875 11.207031 -12.476562 14.0625 -9.15625 C 16.914062 -5.832031 20.988281 -4.171875 26.28125 -4.171875 C 29.53125 -4.171875 33.234375 -4.753906 37.390625 -5.921875 L 37.390625 -1.171875 C 34.160156 0.0351562 30.179688 0.640625 25.453125 0.640625 C 18.585938 0.640625 13.289062 -1.4375 9.5625 -5.59375 C 5.84375 -9.757812 3.984375 -15.675781 3.984375 -23.34375 C 3.984375 -28.144531 4.878906 -32.347656 6.671875 -35.953125 C 8.460938 -39.566406 11.050781 -42.347656 14.4375 -44.296875 C 17.832031 -46.253906 21.820312 -47.234375 26.40625 -47.234375 C 31.289062 -47.234375 35.554688 -46.34375 39.203125 -44.5625 L 36.921875 -39.90625 C 33.390625 -41.5625 29.863281 -42.390625 26.34375 -42.390625 Z M 26.34375 -42.390625 "/></g></g></g><g fill="#ffffff" fill-opacity="1"><g transform="translate(42.153681, 160.290146)"><g><path d="M 33.796875 0 L 3.1875 0 L 3.1875 -4.5625 L 15.453125 -16.875 C 19.179688 -20.65625 21.640625 -23.351562 22.828125 -24.96875 C 24.023438 -26.582031 24.921875 -28.15625 25.515625 -29.6875 C 26.109375 -31.21875 26.40625 -32.863281 26.40625 -34.625 C 26.40625 -37.101562 25.648438 -39.070312 24.140625 -40.53125 C 22.640625 -41.988281 20.550781 -42.71875 17.875 -42.71875 C 15.9375 -42.71875 14.101562 -42.394531 12.375 -41.75 C 10.644531 -41.113281 8.71875 -39.957031 6.59375 -38.28125 L 3.796875 -41.890625 C 8.078125 -45.453125 12.75 -47.234375 17.8125 -47.234375 C 22.1875 -47.234375 25.613281 -46.113281 28.09375 -43.875 C 30.582031 -41.632812 31.828125 -38.625 31.828125 -34.84375 C 31.828125 -31.894531 31 -28.972656 29.34375 -26.078125 C 27.6875 -23.191406 24.582031 -19.539062 20.03125 -15.125 L 9.84375 -5.15625 L 9.84375 -4.90625 L 33.796875 -4.90625 Z M 33.796875 0 "/></g></g></g><g fill="#ffffff" fill-opacity="1"><g transform="translate(79.453188, 160.290146)"><g><path d="M 23.28125 -46.5625 L 5.921875 0 L 0.640625 0 L 18 -46.5625 Z M 23.28125 -46.5625 "/></g></g></g><g fill="#ffffff" fill-opacity="1"><g transform="translate(103.406413, 160.290146)"><g><path d="M 32.046875 -35.609375 C 32.046875 -32.640625 31.210938 -30.207031 29.546875 -28.3125 C 27.878906 -26.425781 25.515625 -25.164062 22.453125 -24.53125 L 22.453125 -24.265625 C 26.191406 -23.804688 28.960938 -22.617188 30.765625 -20.703125 C 32.578125 -18.796875 33.484375 -16.289062 33.484375 -13.1875 C 33.484375 -8.75 31.941406 -5.332031 28.859375 -2.9375 C 25.773438 -0.550781 21.398438 0.640625 15.734375 0.640625 C 13.273438 0.640625 11.019531 0.453125 8.96875 0.078125 C 6.914062 -0.296875 4.925781 -0.945312 3 -1.875 L 3 -6.90625 C 5.007812 -5.914062 7.15625 -5.160156 9.4375 -4.640625 C 11.726562 -4.117188 13.890625 -3.859375 15.921875 -3.859375 C 23.972656 -3.859375 28 -7.007812 28 -13.3125 C 28 -18.957031 23.5625 -21.78125 14.6875 -21.78125 L 10.09375 -21.78125 L 10.09375 -26.34375 L 14.75 -26.34375 C 18.375 -26.34375 21.25 -27.144531 23.375 -28.75 C 25.5 -30.351562 26.5625 -32.578125 26.5625 -35.421875 C 26.5625 -37.691406 25.78125 -39.472656 24.21875 -40.765625 C 22.664062 -42.066406 20.550781 -42.71875 17.875 -42.71875 C 15.832031 -42.71875 13.90625 -42.441406 12.09375 -41.890625 C 10.289062 -41.335938 8.234375 -40.316406 5.921875 -38.828125 L 3.25 -42.390625 C 5.15625 -43.898438 7.351562 -45.082031 9.84375 -45.9375 C 12.34375 -46.800781 14.972656 -47.234375 17.734375 -47.234375 C 22.265625 -47.234375 25.78125 -46.195312 28.28125 -44.125 C 30.789062 -42.0625 32.046875 -39.222656 32.046875 -35.609375 Z M 32.046875 -35.609375 "/></g></g></g><g fill="#ffffff" fill-opacity="1"><g transform="translate(140.70592, 160.290146)"><g/></g></g><g fill="#ffffff" fill-opacity="1"><g transform="translate(157.651553, 160.290146)"><g><path d="M 3.796875 -27.328125 L 3.796875 -31.6875 L 33.40625 -31.6875 L 33.40625 -27.328125 Z M 3.796875 -14.296875 L 3.796875 -18.671875 L 33.40625 -18.671875 L 33.40625 -14.296875 Z M 3.796875 -14.296875 "/></g></g></g><g fill="#ffffff" fill-opacity="1"><g transform="translate(194.951061, 160.290146)"><g/></g></g><g fill="#ffffff" fill-opacity="1"><g transform="translate(211.896693, 160.290146)"><g><path d="M 6.40625 0 L 6.40625 -46.5625 L 11.8125 -46.5625 L 11.8125 -4.90625 L 32.359375 -4.90625 L 32.359375 0 Z M 6.40625 0 "/></g></g></g><g fill="#ffffff" fill-opacity="1"><g transform="translate(245.75611, 160.290146)"><g><path d="M 20.921875 -49.5625 L 19.5625 -36.984375 L 32.234375 -40.515625 L 33.0625 -34.71875 L 20.921875 -33.734375 L 28.828125 -23.34375 L 23.34375 -20.359375 L 17.734375 -31.890625 L 12.640625 -20.359375 L 7.046875 -23.34375 L 14.75 -33.734375 L 2.734375 -34.71875 L 3.65625 -40.515625 L 16.125 -36.984375 L 14.75 -49.5625 Z M 20.921875 -49.5625 "/></g></g></g><g fill="#ffffff" fill-opacity="1"><g transform="translate(281.749642, 160.290146)"><g><path d="M 33.796875 0 L 3.1875 0 L 3.1875 -4.5625 L 15.453125 -16.875 C 19.179688 -20.65625 21.640625 -23.351562 22.828125 -24.96875 C 24.023438 -26.582031 24.921875 -28.15625 25.515625 -29.6875 C 26.109375 -31.21875 26.40625 -32.863281 26.40625 -34.625 C 26.40625 -37.101562 25.648438 -39.070312 24.140625 -40.53125 C 22.640625 -41.988281 20.550781 -42.71875 17.875 -42.71875 C 15.9375 -42.71875 14.101562 -42.394531 12.375 -41.75 C 10.644531 -41.113281 8.71875 -39.957031 6.59375 -38.28125 L 3.796875 -41.890625 C 8.078125 -45.453125 12.75 -47.234375 17.8125 -47.234375 C 22.1875 -47.234375 25.613281 -46.113281 28.09375 -43.875 C 30.582031 -41.632812 31.828125 -38.625 31.828125 -34.84375 C 31.828125 -31.894531 31 -28.972656 29.34375 -26.078125 C 27.6875 -23.191406 24.582031 -19.539062 20.03125 -15.125 L 9.84375 -5.15625 L 9.84375 -4.90625 L 33.796875 -4.90625 Z M 33.796875 0 "/></g></g></g><g fill="#ffffff" fill-opacity="1"><g transform="translate(319.049149, 160.290146)"><g><path d="M 23.28125 -46.5625 L 5.921875 0 L 0.640625 0 L 18 -46.5625 Z M 23.28125 -46.5625 "/></g></g></g><g fill="#ffffff" fill-opacity="1"><g transform="translate(343.002374, 160.290146)"><g><path d="M 32.046875 -35.609375 C 32.046875 -32.640625 31.210938 -30.207031 29.546875 -28.3125 C 27.878906 -26.425781 25.515625 -25.164062 22.453125 -24.53125 L 22.453125 -24.265625 C 26.191406 -23.804688 28.960938 -22.617188 30.765625 -20.703125 C 32.578125 -18.796875 33.484375 -16.289062 33.484375 -13.1875 C 33.484375 -8.75 31.941406 -5.332031 28.859375 -2.9375 C 25.773438 -0.550781 21.398438 0.640625 15.734375 0.640625 C 13.273438 0.640625 11.019531 0.453125 8.96875 0.078125 C 6.914062 -0.296875 4.925781 -0.945312 3 -1.875 L 3 -6.90625 C 5.007812 -5.914062 7.15625 -5.160156 9.4375 -4.640625 C 11.726562 -4.117188 13.890625 -3.859375 15.921875 -3.859375 C 23.972656 -3.859375 28 -7.007812 28 -13.3125 C 28 -18.957031 23.5625 -21.78125 14.6875 -21.78125 L 10.09375 -21.78125 L 10.09375 -26.34375 L 14.75 -26.34375 C 18.375 -26.34375 21.25 -27.144531 23.375 -28.75 C 25.5 -30.351562 26.5625 -32.578125 26.5625 -35.421875 C 26.5625 -37.691406 25.78125 -39.472656 24.21875 -40.765625 C 22.664062 -42.066406 20.550781 -42.71875 17.875 -42.71875 C 15.832031 -42.71875 13.90625 -42.441406 12.09375 -41.890625 C 10.289062 -41.335938 8.234375 -40.316406 5.921875 -38.828125 L 3.25 -42.390625 C 5.15625 -43.898438 7.351562 -45.082031 9.84375 -45.9375 C 12.34375 -46.800781 14.972656 -47.234375 17.734375 -47.234375 C 22.265625 -47.234375 25.78125 -46.195312 28.28125 -44.125 C 30.789062 -42.0625 32.046875 -39.222656 32.046875 -35.609375 Z M 32.046875 -35.609375 "/></g></g></g></g></g><g transform="matrix(1, 0, 0, 1, 80, 540)"><g clip-path="url(#5e406da3c5)"><g fill="#ffffff" fill-opacity="1"><g transform="translate(1.000002, 69.360203)"><g><path d="M 27.9375 0 L 2.609375 0 L 2.609375 -3.59375 L 21.65625 -30.796875 L 3.796875 -30.796875 L 3.796875 -34.90625 L 27.453125 -34.90625 L 27.453125 -30.796875 L 8.65625 -4.109375 L 27.9375 -4.109375 Z M 27.9375 0 "/></g></g></g><g fill="#ffffff" fill-opacity="1"><g transform="translate(31.514881, 69.360203)"><g/></g></g><g fill="#ffffff" fill-opacity="1"><g transform="translate(48.460514, 69.360203)"><g><path d="M 3.796875 -27.328125 L 3.796875 -31.6875 L 33.40625 -31.6875 L 33.40625 -27.328125 Z M 3.796875 -14.296875 L 3.796875 -18.671875 L 33.40625 -18.671875 L 33.40625 -14.296875 Z M 3.796875 -14.296875 "/></g></g></g><g fill="#ffffff" fill-opacity="1"><g transform="translate(85.760021, 69.360203)"><g/></g></g><g fill="#ffffff" fill-opacity="1"><g transform="translate(102.705654, 69.360203)"><g><path d="M 6.40625 0 L 6.40625 -46.5625 L 11.8125 -46.5625 L 11.8125 -4.90625 L 32.359375 -4.90625 L 32.359375 0 Z M 6.40625 0 "/></g></g></g><g fill="#ffffff" fill-opacity="1"><g transform="translate(136.565071, 69.360203)"><g><path d="M 23.28125 -46.5625 L 5.921875 0 L 0.640625 0 L 18 -46.5625 Z M 23.28125 -46.5625 "/></g></g></g><g fill="#ffffff" fill-opacity="1"><g transform="translate(160.518295, 69.360203)"><g><path d="M 33.796875 0 L 3.1875 0 L 3.1875 -4.5625 L 15.453125 -16.875 C 19.179688 -20.65625 21.640625 -23.351562 22.828125 -24.96875 C 24.023438 -26.582031 24.921875 -28.15625 25.515625 -29.6875 C 26.109375 -31.21875 26.40625 -32.863281 26.40625 -34.625 C 26.40625 -37.101562 25.648438 -39.070312 24.140625 -40.53125 C 22.640625 -41.988281 20.550781 -42.71875 17.875 -42.71875 C 15.9375 -42.71875 14.101562 -42.394531 12.375 -41.75 C 10.644531 -41.113281 8.71875 -39.957031 6.59375 -38.28125 L 3.796875 -41.890625 C 8.078125 -45.453125 12.75 -47.234375 17.8125 -47.234375 C 22.1875 -47.234375 25.613281 -46.113281 28.09375 -43.875 C 30.582031 -41.632812 31.828125 -38.625 31.828125 -34.84375 C 31.828125 -31.894531 31 -28.972656 29.34375 -26.078125 C 27.6875 -23.191406 24.582031 -19.539062 20.03125 -15.125 L 9.84375 -5.15625 L 9.84375 -4.90625 L 33.796875 -4.90625 Z M 33.796875 0 "/></g></g></g><g fill="#ffffff" fill-opacity="1"><g transform="translate(197.817793, 69.360203)"><g/></g></g><g fill="#ffffff" fill-opacity="1"><g transform="translate(214.763442, 69.360203)"><g><path d="M 2.609375 -22.570312 L 52.90625 -22.570312 C 49.578125 -20.027344 45.273438 -15.917969 42.339844 -11.871094 L 46.253906 -9.589844 C 50.621094 -15.332031 57.144531 -21.070312 62.953125 -24.789062 C 57.144531 -28.507812 50.621094 -34.25 46.253906 -39.988281 L 42.339844 -37.707031 C 45.273438 -33.660156 49.578125 -29.550781 52.90625 -27.007812 L 2.609375 -27.007812 Z M 2.609375 -22.570312 "/></g></g></g><g fill="#ffffff" fill-opacity="1"><g transform="translate(279.997842, 69.360203)"><g/></g></g><g fill="#ffffff" fill-opacity="1"><g transform="translate(296.943475, 69.360203)"><g><path d="M 6.40625 0 L 6.40625 -46.5625 L 11.8125 -46.5625 L 11.8125 -4.90625 L 32.359375 -4.90625 L 32.359375 0 Z M 6.40625 0 "/></g></g></g><g fill="#ffffff" fill-opacity="1"><g transform="translate(330.802892, 69.360203)"><g><path d="M 3.796875 -27.328125 L 3.796875 -31.6875 L 33.40625 -31.6875 L 33.40625 -27.328125 Z M 3.796875 -14.296875 L 3.796875 -18.671875 L 33.40625 -18.671875 L 33.40625 -14.296875 Z M 3.796875 -14.296875 "/></g></g></g><g fill="#ffffff" fill-opacity="1"><g transform="translate(368.1024, 69.360203)"><g><path d="M 22.78125 0 L 17.609375 0 L 17.609375 -33.1875 C 17.609375 -35.945312 17.695312 -38.5625 17.875 -41.03125 C 17.425781 -40.582031 16.925781 -40.113281 16.375 -39.625 C 15.820312 -39.132812 13.296875 -37.0625 8.796875 -33.40625 L 5.984375 -37.046875 L 18.3125 -46.5625 L 22.78125 -46.5625 Z M 22.78125 0 "/></g></g></g><g fill="#ffffff" fill-opacity="1"><g transform="translate(405.401907, 69.360203)"><g><path d="M 23.28125 -46.5625 L 5.921875 0 L 0.640625 0 L 18 -46.5625 Z M 23.28125 -46.5625 "/></g></g></g><g fill="#ffffff" fill-opacity="1"><g transform="translate(429.355132, 69.360203)"><g><path d="M 18.609375 -47.234375 C 22.847656 -47.234375 26.207031 -46.242188 28.6875 -44.265625 C 31.175781 -42.296875 32.421875 -39.570312 32.421875 -36.09375 C 32.421875 -33.800781 31.707031 -31.707031 30.28125 -29.8125 C 28.863281 -27.925781 26.59375 -26.207031 23.46875 -24.65625 C 27.25 -22.851562 29.9375 -20.957031 31.53125 -18.96875 C 33.125 -16.976562 33.921875 -14.679688 33.921875 -12.078125 C 33.921875 -8.210938 32.570312 -5.125 29.875 -2.8125 C 27.175781 -0.507812 23.484375 0.640625 18.796875 0.640625 C 13.828125 0.640625 10.003906 -0.445312 7.328125 -2.625 C 4.648438 -4.800781 3.3125 -7.882812 3.3125 -11.875 C 3.3125 -17.207031 6.5625 -21.359375 13.0625 -24.328125 C 10.125 -25.984375 8.019531 -27.769531 6.75 -29.6875 C 5.476562 -31.613281 4.84375 -33.769531 4.84375 -36.15625 C 4.84375 -39.53125 6.085938 -42.21875 8.578125 -44.21875 C 11.078125 -46.226562 14.421875 -47.234375 18.609375 -47.234375 Z M 8.53125 -11.75 C 8.53125 -9.207031 9.414062 -7.222656 11.1875 -5.796875 C 12.96875 -4.367188 15.460938 -3.65625 18.671875 -3.65625 C 21.828125 -3.65625 24.285156 -4.398438 26.046875 -5.890625 C 27.816406 -7.378906 28.703125 -9.421875 28.703125 -12.015625 C 28.703125 -14.066406 27.875 -15.894531 26.21875 -17.5 C 24.5625 -19.101562 21.671875 -20.660156 17.546875 -22.171875 C 14.390625 -20.804688 12.097656 -19.300781 10.671875 -17.65625 C 9.242188 -16.007812 8.53125 -14.039062 8.53125 -11.75 Z M 18.53125 -42.9375 C 15.882812 -42.9375 13.804688 -42.296875 12.296875 -41.015625 C 10.785156 -39.742188 10.03125 -38.050781 10.03125 -35.9375 C 10.03125 -33.976562 10.65625 -32.296875 11.90625 -30.890625 C 13.164062 -29.492188 15.484375 -28.09375 18.859375 -26.6875 C 21.890625 -27.96875 24.035156 -29.335938 25.296875 -30.796875 C 26.566406 -32.265625 27.203125 -33.976562 27.203125 -35.9375 C 27.203125 -38.070312 26.429688 -39.769531 24.890625 -41.03125 C 23.347656 -42.300781 21.226562 -42.9375 18.53125 -42.9375 Z M 18.53125 -42.9375 "/></g></g></g><g fill="#ffffff" fill-opacity="1"><g transform="translate(466.65464, 69.360203)"><g/></g></g><g fill="#ffffff" fill-opacity="1"><g transform="translate(483.600252, 69.360203)"><g><path d="M 2.609375 -22.570312 L 52.90625 -22.570312 C 49.578125 -20.027344 45.273438 -15.917969 42.339844 -11.871094 L 46.253906 -9.589844 C 50.621094 -15.332031 57.144531 -21.070312 62.953125 -24.789062 C 57.144531 -28.507812 50.621094 -34.25 46.253906 -39.988281 L 42.339844 -37.707031 C 45.273438 -33.660156 49.578125 -29.550781 52.90625 -27.007812 L 2.609375 -27.007812 Z M 2.609375 -22.570312 "/></g></g></g><g fill="#ffffff" fill-opacity="1"><g transform="translate(548.834652, 69.360203)"><g/></g></g><g fill="#ffffff" fill-opacity="1"><g transform="translate(565.780263, 69.360203)"><g><path d="M 27.9375 0 L 2.609375 0 L 2.609375 -3.59375 L 21.65625 -30.796875 L 3.796875 -30.796875 L 3.796875 -34.90625 L 27.453125 -34.90625 L 27.453125 -30.796875 L 8.65625 -4.109375 L 27.9375 -4.109375 Z M 27.9375 0 "/></g></g></g><g fill="#ffffff" fill-opacity="1"><g transform="translate(596.295153, 69.360203)"><g><path d="M 3.796875 -27.328125 L 3.796875 -31.6875 L 33.40625 -31.6875 L 33.40625 -27.328125 Z M 3.796875 -14.296875 L 3.796875 -18.671875 L 33.40625 -18.671875 L 33.40625 -14.296875 Z M 3.796875 -14.296875 "/></g></g></g><g fill="#ffffff" fill-opacity="1"><g transform="translate(633.59466, 69.360203)"><g><path d="M 22.78125 0 L 17.609375 0 L 17.609375 -33.1875 C 17.609375 -35.945312 17.695312 -38.5625 17.875 -41.03125 C 17.425781 -40.582031 16.925781 -40.113281 16.375 -39.625 C 15.820312 -39.132812 13.296875 -37.0625 8.796875 -33.40625 L 5.984375 -37.046875 L 18.3125 -46.5625 L 22.78125 -46.5625 Z M 22.78125 0 "/></g></g></g><g fill="#ffffff" fill-opacity="1"><g transform="translate(670.894168, 69.360203)"><g><path d="M 23.28125 -46.5625 L 5.921875 0 L 0.640625 0 L 18 -46.5625 Z M 23.28125 -46.5625 "/></g></g></g><g fill="#ffffff" fill-opacity="1"><g transform="translate(694.847393, 69.360203)"><g><path d="M 22.78125 0 L 17.609375 0 L 17.609375 -33.1875 C 17.609375 -35.945312 17.695312 -38.5625 17.875 -41.03125 C 17.425781 -40.582031 16.925781 -40.113281 16.375 -39.625 C 15.820312 -39.132812 13.296875 -37.0625 8.796875 -33.40625 L 5.984375 -37.046875 L 18.3125 -46.5625 L 22.78125 -46.5625 Z M 22.78125 0 "/></g></g></g><g fill="#ffffff" fill-opacity="1"><g transform="translate(732.146943, 69.360203)"><g><path d="M 3.734375 -19.90625 C 3.734375 -29.0625 5.507812 -35.90625 9.0625 -40.4375 C 12.613281 -44.96875 17.875 -47.234375 24.84375 -47.234375 C 27.238281 -47.234375 29.128906 -47.03125 30.515625 -46.625 L 30.515625 -42.078125 C 28.878906 -42.609375 27.007812 -42.875 24.90625 -42.875 C 19.914062 -42.875 16.101562 -41.316406 13.46875 -38.203125 C 10.84375 -35.097656 9.398438 -30.210938 9.140625 -23.546875 L 9.53125 -23.546875 C 11.863281 -27.191406 15.554688 -29.015625 20.609375 -29.015625 C 24.796875 -29.015625 28.09375 -27.75 30.5 -25.21875 C 32.90625 -22.695312 34.109375 -19.269531 34.109375 -14.9375 C 34.109375 -10.09375 32.785156 -6.285156 30.140625 -3.515625 C 27.503906 -0.742188 23.9375 0.640625 19.4375 0.640625 C 14.613281 0.640625 10.789062 -1.164062 7.96875 -4.78125 C 5.144531 -8.40625 3.734375 -13.445312 3.734375 -19.90625 Z M 19.359375 -3.859375 C 22.378906 -3.859375 24.722656 -4.804688 26.390625 -6.703125 C 28.054688 -8.609375 28.890625 -11.351562 28.890625 -14.9375 C 28.890625 -18.019531 28.113281 -20.441406 26.5625 -22.203125 C 25.007812 -23.960938 22.695312 -24.84375 19.625 -24.84375 C 17.707031 -24.84375 15.953125 -24.445312 14.359375 -23.65625 C 12.773438 -22.875 11.507812 -21.789062 10.5625 -20.40625 C 9.613281 -19.03125 9.140625 -17.601562 9.140625 -16.125 C 9.140625 -13.9375 9.5625 -11.894531 10.40625 -10 C 11.257812 -8.113281 12.46875 -6.617188 14.03125 -5.515625 C 15.59375 -4.410156 17.367188 -3.859375 19.359375 -3.859375 Z M 19.359375 -3.859375 "/></g></g></g></g></g><g transform="matrix(1, 0, 0, 1, 80, 645)"><g clip-path="url(#18e3f7f9cc)"><g fill="#ffffff" fill-opacity="1"><g transform="translate(1.000002, 69.554494)"><g><path d="M 27.9375 0 L 2.609375 0 L 2.609375 -3.59375 L 21.65625 -30.796875 L 3.796875 -30.796875 L 3.796875 -34.90625 L 27.453125 -34.90625 L 27.453125 -30.796875 L 8.65625 -4.109375 L 27.9375 -4.109375 Z M 27.9375 0 "/></g></g></g><g fill="#ffffff" fill-opacity="1"><g transform="translate(31.514881, 69.554494)"><g><path d="M 33.796875 0 L 3.1875 0 L 3.1875 -4.5625 L 15.453125 -16.875 C 19.179688 -20.65625 21.640625 -23.351562 22.828125 -24.96875 C 24.023438 -26.582031 24.921875 -28.15625 25.515625 -29.6875 C 26.109375 -31.21875 26.40625 -32.863281 26.40625 -34.625 C 26.40625 -37.101562 25.648438 -39.070312 24.140625 -40.53125 C 22.640625 -41.988281 20.550781 -42.71875 17.875 -42.71875 C 15.9375 -42.71875 14.101562 -42.394531 12.375 -41.75 C 10.644531 -41.113281 8.71875 -39.957031 6.59375 -38.28125 L 3.796875 -41.890625 C 8.078125 -45.453125 12.75 -47.234375 17.8125 -47.234375 C 22.1875 -47.234375 25.613281 -46.113281 28.09375 -43.875 C 30.582031 -41.632812 31.828125 -38.625 31.828125 -34.84375 C 31.828125 -31.894531 31 -28.972656 29.34375 -26.078125 C 27.6875 -23.191406 24.582031 -19.539062 20.03125 -15.125 L 9.84375 -5.15625 L 9.84375 -4.90625 L 33.796875 -4.90625 Z M 33.796875 0 "/></g></g></g><g fill="#ffffff" fill-opacity="1"><g transform="translate(68.814389, 69.554494)"><g/></g></g><g fill="#ffffff" fill-opacity="1"><g transform="translate(85.760021, 69.554494)"><g><path d="M 3.796875 -27.328125 L 3.796875 -31.6875 L 33.40625 -31.6875 L 33.40625 -27.328125 Z M 3.796875 -14.296875 L 3.796875 -18.671875 L 33.40625 -18.671875 L 33.40625 -14.296875 Z M 3.796875 -14.296875 "/></g></g></g><g fill="#ffffff" fill-opacity="1"><g transform="translate(123.059529, 69.554494)"><g/></g></g><g fill="#ffffff" fill-opacity="1"><g transform="translate(140.005161, 69.554494)"><g><path d="M 6.40625 0 L 6.40625 -46.5625 L 11.8125 -46.5625 L 11.8125 -4.90625 L 32.359375 -4.90625 L 32.359375 0 Z M 6.40625 0 "/></g></g></g><g fill="#ffffff" fill-opacity="1"><g transform="translate(173.864579, 69.554494)"><g/></g></g><g fill="#ffffff" fill-opacity="1"><g transform="translate(190.810218, 69.554494)"><g><path d="M 2.609375 -22.570312 L 52.90625 -22.570312 C 49.578125 -20.027344 45.273438 -15.917969 42.339844 -11.871094 L 46.253906 -9.589844 C 50.621094 -15.332031 57.144531 -21.070312 62.953125 -24.789062 C 57.144531 -28.507812 50.621094 -34.25 46.253906 -39.988281 L 42.339844 -37.707031 C 45.273438 -33.660156 49.578125 -29.550781 52.90625 -27.007812 L 2.609375 -27.007812 Z M 2.609375 -22.570312 "/></g></g></g><g fill="#ffffff" fill-opacity="1"><g transform="translate(256.044619, 69.554494)"><g/></g></g><g fill="#ffffff" fill-opacity="1"><g transform="translate(272.990251, 69.554494)"><g><path d="M 6.40625 0 L 6.40625 -46.5625 L 11.8125 -46.5625 L 11.8125 -4.90625 L 32.359375 -4.90625 L 32.359375 0 Z M 6.40625 0 "/></g></g></g><g fill="#ffffff" fill-opacity="1"><g transform="translate(306.849668, 69.554494)"><g><path d="M 3.796875 -27.328125 L 3.796875 -31.6875 L 33.40625 -31.6875 L 33.40625 -27.328125 Z M 3.796875 -14.296875 L 3.796875 -18.671875 L 33.40625 -18.671875 L 33.40625 -14.296875 Z M 3.796875 -14.296875 "/></g></g></g><g fill="#ffffff" fill-opacity="1"><g transform="translate(344.149176, 69.554494)"><g><path d="M 22.78125 0 L 17.609375 0 L 17.609375 -33.1875 C 17.609375 -35.945312 17.695312 -38.5625 17.875 -41.03125 C 17.425781 -40.582031 16.925781 -40.113281 16.375 -39.625 C 15.820312 -39.132812 13.296875 -37.0625 8.796875 -33.40625 L 5.984375 -37.046875 L 18.3125 -46.5625 L 22.78125 -46.5625 Z M 22.78125 0 "/></g></g></g><g fill="#ffffff" fill-opacity="1"><g transform="translate(381.448684, 69.554494)"><g><path d="M 23.28125 -46.5625 L 5.921875 0 L 0.640625 0 L 18 -46.5625 Z M 23.28125 -46.5625 "/></g></g></g><g fill="#ffffff" fill-opacity="1"><g transform="translate(405.401908, 69.554494)"><g><path d="M 18.609375 -47.234375 C 22.847656 -47.234375 26.207031 -46.242188 28.6875 -44.265625 C 31.175781 -42.296875 32.421875 -39.570312 32.421875 -36.09375 C 32.421875 -33.800781 31.707031 -31.707031 30.28125 -29.8125 C 28.863281 -27.925781 26.59375 -26.207031 23.46875 -24.65625 C 27.25 -22.851562 29.9375 -20.957031 31.53125 -18.96875 C 33.125 -16.976562 33.921875 -14.679688 33.921875 -12.078125 C 33.921875 -8.210938 32.570312 -5.125 29.875 -2.8125 C 27.175781 -0.507812 23.484375 0.640625 18.796875 0.640625 C 13.828125 0.640625 10.003906 -0.445312 7.328125 -2.625 C 4.648438 -4.800781 3.3125 -7.882812 3.3125 -11.875 C 3.3125 -17.207031 6.5625 -21.359375 13.0625 -24.328125 C 10.125 -25.984375 8.019531 -27.769531 6.75 -29.6875 C 5.476562 -31.613281 4.84375 -33.769531 4.84375 -36.15625 C 4.84375 -39.53125 6.085938 -42.21875 8.578125 -44.21875 C 11.078125 -46.226562 14.421875 -47.234375 18.609375 -47.234375 Z M 8.53125 -11.75 C 8.53125 -9.207031 9.414062 -7.222656 11.1875 -5.796875 C 12.96875 -4.367188 15.460938 -3.65625 18.671875 -3.65625 C 21.828125 -3.65625 24.285156 -4.398438 26.046875 -5.890625 C 27.816406 -7.378906 28.703125 -9.421875 28.703125 -12.015625 C 28.703125 -14.066406 27.875 -15.894531 26.21875 -17.5 C 24.5625 -19.101562 21.671875 -20.660156 17.546875 -22.171875 C 14.390625 -20.804688 12.097656 -19.300781 10.671875 -17.65625 C 9.242188 -16.007812 8.53125 -14.039062 8.53125 -11.75 Z M 18.53125 -42.9375 C 15.882812 -42.9375 13.804688 -42.296875 12.296875 -41.015625 C 10.785156 -39.742188 10.03125 -38.050781 10.03125 -35.9375 C 10.03125 -33.976562 10.65625 -32.296875 11.90625 -30.890625 C 13.164062 -29.492188 15.484375 -28.09375 18.859375 -26.6875 C 21.890625 -27.96875 24.035156 -29.335938 25.296875 -30.796875 C 26.566406 -32.265625 27.203125 -33.976562 27.203125 -35.9375 C 27.203125 -38.070312 26.429688 -39.769531 24.890625 -41.03125 C 23.347656 -42.300781 21.226562 -42.9375 18.53125 -42.9375 Z M 18.53125 -42.9375 "/></g></g></g><g fill="#ffffff" fill-opacity="1"><g transform="translate(442.701416, 69.554494)"><g/></g></g><g fill="#ffffff" fill-opacity="1"><g transform="translate(459.647028, 69.554494)"><g><path d="M 2.609375 -22.570312 L 52.90625 -22.570312 C 49.578125 -20.027344 45.273438 -15.917969 42.339844 -11.871094 L 46.253906 -9.589844 C 50.621094 -15.332031 57.144531 -21.070312 62.953125 -24.789062 C 57.144531 -28.507812 50.621094 -34.25 46.253906 -39.988281 L 42.339844 -37.707031 C 45.273438 -33.660156 49.578125 -29.550781 52.90625 -27.007812 L 2.609375 -27.007812 Z M 2.609375 -22.570312 "/></g></g></g><g fill="#ffffff" fill-opacity="1"><g transform="translate(524.881429, 69.554494)"><g/></g></g><g fill="#ffffff" fill-opacity="1"><g transform="translate(541.827039, 69.554494)"><g><path d="M 27.9375 0 L 2.609375 0 L 2.609375 -3.59375 L 21.65625 -30.796875 L 3.796875 -30.796875 L 3.796875 -34.90625 L 27.453125 -34.90625 L 27.453125 -30.796875 L 8.65625 -4.109375 L 27.9375 -4.109375 Z M 27.9375 0 "/></g></g></g><g fill="#ffffff" fill-opacity="1"><g transform="translate(572.341929, 69.554494)"><g><path d="M 3.796875 -27.328125 L 3.796875 -31.6875 L 33.40625 -31.6875 L 33.40625 -27.328125 Z M 3.796875 -14.296875 L 3.796875 -18.671875 L 33.40625 -18.671875 L 33.40625 -14.296875 Z M 3.796875 -14.296875 "/></g></g></g><g fill="#ffffff" fill-opacity="1"><g transform="translate(609.641437, 69.554494)"><g><path d="M 22.78125 0 L 17.609375 0 L 17.609375 -33.1875 C 17.609375 -35.945312 17.695312 -38.5625 17.875 -41.03125 C 17.425781 -40.582031 16.925781 -40.113281 16.375 -39.625 C 15.820312 -39.132812 13.296875 -37.0625 8.796875 -33.40625 L 5.984375 -37.046875 L 18.3125 -46.5625 L 22.78125 -46.5625 Z M 22.78125 0 "/></g></g></g><g fill="#ffffff" fill-opacity="1"><g transform="translate(646.940944, 69.554494)"><g><path d="M 23.28125 -46.5625 L 5.921875 0 L 0.640625 0 L 18 -46.5625 Z M 23.28125 -46.5625 "/></g></g></g><g fill="#ffffff" fill-opacity="1"><g transform="translate(670.894169, 69.554494)"><g><path d="M 18.609375 -47.234375 C 22.847656 -47.234375 26.207031 -46.242188 28.6875 -44.265625 C 31.175781 -42.296875 32.421875 -39.570312 32.421875 -36.09375 C 32.421875 -33.800781 31.707031 -31.707031 30.28125 -29.8125 C 28.863281 -27.925781 26.59375 -26.207031 23.46875 -24.65625 C 27.25 -22.851562 29.9375 -20.957031 31.53125 -18.96875 C 33.125 -16.976562 33.921875 -14.679688 33.921875 -12.078125 C 33.921875 -8.210938 32.570312 -5.125 29.875 -2.8125 C 27.175781 -0.507812 23.484375 0.640625 18.796875 0.640625 C 13.828125 0.640625 10.003906 -0.445312 7.328125 -2.625 C 4.648438 -4.800781 3.3125 -7.882812 3.3125 -11.875 C 3.3125 -17.207031 6.5625 -21.359375 13.0625 -24.328125 C 10.125 -25.984375 8.019531 -27.769531 6.75 -29.6875 C 5.476562 -31.613281 4.84375 -33.769531 4.84375 -36.15625 C 4.84375 -39.53125 6.085938 -42.21875 8.578125 -44.21875 C 11.078125 -46.226562 14.421875 -47.234375 18.609375 -47.234375 Z M 8.53125 -11.75 C 8.53125 -9.207031 9.414062 -7.222656 11.1875 -5.796875 C 12.96875 -4.367188 15.460938 -3.65625 18.671875 -3.65625 C 21.828125 -3.65625 24.285156 -4.398438 26.046875 -5.890625 C 27.816406 -7.378906 28.703125 -9.421875 28.703125 -12.015625 C 28.703125 -14.066406 27.875 -15.894531 26.21875 -17.5 C 24.5625 -19.101562 21.671875 -20.660156 17.546875 -22.171875 C 14.390625 -20.804688 12.097656 -19.300781 10.671875 -17.65625 C 9.242188 -16.007812 8.53125 -14.039062 8.53125 -11.75 Z M 18.53125 -42.9375 C 15.882812 -42.9375 13.804688 -42.296875 12.296875 -41.015625 C 10.785156 -39.742188 10.03125 -38.050781 10.03125 -35.9375 C 10.03125 -33.976562 10.65625 -32.296875 11.90625 -30.890625 C 13.164062 -29.492188 15.484375 -28.09375 18.859375 -26.6875 C 21.890625 -27.96875 24.035156 -29.335938 25.296875 -30.796875 C 26.566406 -32.265625 27.203125 -33.976562 27.203125 -35.9375 C 27.203125 -38.070312 26.429688 -39.769531 24.890625 -41.03125 C 23.347656 -42.300781 21.226562 -42.9375 18.53125 -42.9375 Z M 18.53125 -42.9375 "/></g></g></g></g></g><path fill="#ffcd41" d="M 1024.875 551.667969 L 1077.929688 540.214844 L 1091.027344 698.367188 L 1070.066406 701.945312 Z M 1024.875 551.667969 " fill-opacity="1" fill-rule="nonzero"/><g clip-path="url(#6231c015a6)"><path stroke-linecap="butt" transform="matrix(0.0949254, 0, 0, 0.0947047, 1023.070491, 515.811786)" fill="none" stroke-linejoin="miter" d="M 19.009761 378.610456 L 577.919033 257.675305 L 715.897444 1927.628057 L 495.082605 1965.40998 Z M 19.009761 378.610456 " stroke="#231f20" stroke-width="30" stroke-opacity="1" stroke-miterlimit="10"/></g><path fill="#ffcd41" d="M 1096.265625 520.894531 L 1163.726562 517.316406 L 1148.660156 706.238281 L 1120.5 706.238281 Z M 1096.265625 520.894531 " fill-opacity="1" fill-rule="nonzero"/><g clip-path="url(#fc42c440ba)"><path stroke-linecap="butt" transform="matrix(0.0949254, 0, 0, 0.0947047, 1023.070491, 515.811786)" fill="none" stroke-linejoin="miter" d="M 771.080579 53.669419 L 1481.753758 15.887495 L 1323.035376 2010.740039 L 1026.379734 2010.740039 Z M 771.080579 53.669419 " stroke="#231f20" stroke-width="30" stroke-opacity="1" stroke-miterlimit="10"/></g><path fill="#ffcd41" d="M 1182.71875 530.199219 L 1236.425781 539.5 L 1201.710938 701.945312 L 1175.515625 697.648438 L 1182.71875 530.195312 Z M 1182.71875 530.199219 " fill-opacity="1" fill-rule="nonzero"/><g clip-path="url(#d230c3563c)"><path stroke-linecap="butt" transform="matrix(0.0949254, 0, 0, 0.0947047, 1023.070491, 515.811786)" fill="none" stroke-linejoin="miter" d="M 1681.828627 151.918917 L 2247.610071 250.127169 L 1881.903497 1965.40998 L 1605.946673 1920.038675 L 1681.828627 151.877671 Z M 1681.828627 151.918917 " stroke="#231f20" stroke-width="30" stroke-opacity="1" stroke-miterlimit="10"/></g><path fill="#ffcd41" d="M 1079.253906 710.28125 C 1081.359375 709.796875 1090.746094 707.632812 1095.785156 714.320312 C 1098.757812 718.269531 1099.21875 723.984375 1097.390625 728.226562 C 1094.515625 734.910156 1086.460938 736.8125 1080.386719 734.539062 C 1076.347656 733.03125 1071.03125 728.871094 1070.425781 722.691406 C 1070.035156 718.667969 1071.726562 714.730469 1074.433594 712.46875 C 1074.816406 712.148438 1076.289062 710.964844 1079.253906 710.28125 Z M 1079.253906 710.28125 " fill-opacity="1" fill-rule="nonzero"/><g clip-path="url(#4033275ad4)"><path stroke-linecap="butt" transform="matrix(0.0949254, 0, 0, 0.0947047, 1023.070491, 515.811786)" fill="none" stroke-linejoin="miter" d="M 591.869132 2053.430312 C 614.049377 2048.315728 712.934591 2025.465089 766.019039 2096.079339 C 797.334747 2137.779693 802.190534 2198.123528 782.93199 2242.91738 C 752.64505 2313.490383 667.792236 2333.577497 603.802844 2309.571952 C 561.252985 2293.650749 505.246836 2249.723076 498.868472 2184.47089 C 494.753399 2141.98685 512.571667 2100.410236 541.089126 2076.528431 C 545.121898 2073.146206 560.635724 2060.648474 591.869132 2053.430312 Z M 591.869132 2053.430312 " stroke="#231f20" stroke-width="30" stroke-opacity="1" stroke-miterlimit="10"/></g><path fill="#ffcd41" d="M 1129.363281 717.109375 C 1131.714844 716.519531 1142.203125 713.882812 1147.6875 721.292969 C 1150.925781 725.667969 1151.332031 732.082031 1149.222656 736.890625 C 1145.902344 744.472656 1136.902344 746.785156 1130.183594 744.363281 C 1125.71875 742.753906 1119.875 738.191406 1119.316406 731.253906 C 1118.949219 726.738281 1120.910156 722.277344 1123.960938 719.671875 C 1124.390625 719.304688 1126.054688 717.941406 1129.363281 717.109375 Z M 1129.363281 717.109375 " fill-opacity="1" fill-rule="nonzero"/><g clip-path="url(#b72e77f213)"><path stroke-linecap="butt" transform="matrix(0.0949254, 0, 0, 0.0947047, 1023.070491, 515.811786)" fill="none" stroke-linejoin="miter" d="M 1119.750749 2125.52944 C 1144.523491 2119.301198 1255.013213 2091.459715 1312.788843 2169.704593 C 1346.902802 2215.900831 1351.182478 2283.627815 1328.961082 2334.40243 C 1293.982958 2414.46216 1199.171666 2438.880172 1128.392404 2413.307254 C 1081.357114 2396.313638 1019.795616 2348.137562 1013.911061 2274.883527 C 1010.042892 2227.20241 1030.700561 2180.098746 1062.839284 2152.587237 C 1067.365865 2148.710053 1084.896078 2134.314975 1119.750749 2125.52944 Z M 1119.750749 2125.52944 " stroke="#231f20" stroke-width="30" stroke-opacity="1" stroke-miterlimit="10"/></g><path fill="#ffcd41" d="M 1184.417969 709.316406 C 1186.570312 709.296875 1196.164062 709.199219 1199.894531 716.839844 C 1202.097656 721.355469 1201.515625 727.054688 1198.960938 730.820312 C 1194.9375 736.753906 1186.695312 736.882812 1181.148438 733.347656 C 1177.464844 730.996094 1173 725.773438 1173.523438 719.582031 C 1173.863281 715.554688 1176.238281 712.0625 1179.296875 710.425781 C 1179.730469 710.191406 1181.390625 709.347656 1184.417969 709.320312 Z M 1184.417969 709.316406 " fill-opacity="1" fill-rule="nonzero"/><g clip-path="url(#21b87d6ca3)"><path stroke-linecap="butt" transform="matrix(0.0949254, 0, 0, 0.0947047, 1023.070491, 515.811786)" fill="none" stroke-linejoin="miter" d="M 1699.729197 2043.242392 C 1722.403251 2043.036158 1823.469454 2042.004992 1862.768405 2122.683422 C 1885.977419 2170.364539 1879.84596 2230.543388 1852.93338 2270.30515 C 1810.548124 2332.958798 1723.720075 2334.319937 1665.286032 2296.991727 C 1626.48089 2272.161249 1579.445601 2217.01449 1584.959799 2151.638564 C 1588.539913 2109.113277 1613.559559 2072.23878 1645.780584 2054.956438 C 1650.348316 2052.481639 1667.837378 2043.572365 1699.729197 2043.283638 Z M 1699.729197 2043.242392 " stroke="#231f20" stroke-width="30" stroke-opacity="1" stroke-miterlimit="10"/></g><g fill="#ffffff" fill-opacity="1"><g transform="translate(334.807607, 107.250015)"><g><path d="M 45.90625 0 L 39.265625 0 L 11.96875 -41.9375 L 11.6875 -41.9375 C 12.050781 -37.019531 12.234375 -32.507812 12.234375 -28.40625 L 12.234375 0 L 6.875 0 L 6.875 -49.96875 L 13.4375 -49.96875 L 40.671875 -8.203125 L 40.953125 -8.203125 C 40.898438 -8.816406 40.796875 -10.789062 40.640625 -14.125 C 40.484375 -17.46875 40.425781 -19.859375 40.46875 -21.296875 L 40.46875 -49.96875 L 45.90625 -49.96875 Z M 45.90625 0 "/></g></g></g><g fill="#ffffff" fill-opacity="1"><g transform="translate(387.578097, 107.250015)"><g><path d="M 38.34375 -18.765625 C 38.34375 -12.660156 36.804688 -7.890625 33.734375 -4.453125 C 30.660156 -1.023438 26.410156 0.6875 20.984375 0.6875 C 17.640625 0.6875 14.664062 -0.0976562 12.0625 -1.671875 C 9.46875 -3.242188 7.460938 -5.5 6.046875 -8.4375 C 4.640625 -11.382812 3.9375 -14.828125 3.9375 -18.765625 C 3.9375 -24.867188 5.460938 -29.625 8.515625 -33.03125 C 11.566406 -36.4375 15.800781 -38.140625 21.21875 -38.140625 C 26.46875 -38.140625 30.632812 -36.394531 33.71875 -32.90625 C 36.800781 -29.425781 38.34375 -24.710938 38.34375 -18.765625 Z M 9.8125 -18.765625 C 9.8125 -13.984375 10.765625 -10.335938 12.671875 -7.828125 C 14.585938 -5.316406 17.40625 -4.0625 21.125 -4.0625 C 24.832031 -4.0625 27.648438 -5.304688 29.578125 -7.796875 C 31.503906 -10.296875 32.46875 -13.953125 32.46875 -18.765625 C 32.46875 -23.523438 31.503906 -27.140625 29.578125 -29.609375 C 27.648438 -32.085938 24.8125 -33.328125 21.0625 -33.328125 C 17.34375 -33.328125 14.535156 -32.109375 12.640625 -29.671875 C 10.753906 -27.234375 9.8125 -23.597656 9.8125 -18.765625 Z M 9.8125 -18.765625 "/></g></g></g><g fill="#ffffff" fill-opacity="1"><g transform="translate(429.856015, 107.250015)"><g><path d="M 18.109375 -4 C 19.117188 -4 20.085938 -4.070312 21.015625 -4.21875 C 21.953125 -4.363281 22.695312 -4.519531 23.25 -4.6875 L 23.25 -0.34375 C 22.625 -0.0390625 21.710938 0.203125 20.515625 0.390625 C 19.328125 0.585938 18.253906 0.6875 17.296875 0.6875 C 10.046875 0.6875 6.421875 -3.128906 6.421875 -10.765625 L 6.421875 -33.046875 L 1.0625 -33.046875 L 1.0625 -35.78125 L 6.421875 -38.140625 L 8.8125 -46.140625 L 12.09375 -46.140625 L 12.09375 -37.46875 L 22.96875 -37.46875 L 22.96875 -33.046875 L 12.09375 -33.046875 L 12.09375 -11 C 12.09375 -8.75 12.628906 -7.019531 13.703125 -5.8125 C 14.773438 -4.601562 16.242188 -4 18.109375 -4 Z M 18.109375 -4 "/></g></g></g><g fill="#ffffff" fill-opacity="1"><g transform="translate(454.566555, 107.250015)"><g><path d="M 21.84375 0.6875 C 16.300781 0.6875 11.929688 -1 8.734375 -4.375 C 5.535156 -7.75 3.9375 -12.429688 3.9375 -18.421875 C 3.9375 -24.460938 5.421875 -29.257812 8.390625 -32.8125 C 11.367188 -36.363281 15.363281 -38.140625 20.375 -38.140625 C 25.0625 -38.140625 28.769531 -36.59375 31.5 -33.5 C 34.238281 -30.414062 35.609375 -26.347656 35.609375 -21.296875 L 35.609375 -17.703125 L 9.8125 -17.703125 C 9.925781 -13.304688 11.035156 -9.96875 13.140625 -7.6875 C 15.242188 -5.40625 18.210938 -4.265625 22.046875 -4.265625 C 26.078125 -4.265625 30.066406 -5.109375 34.015625 -6.796875 L 34.015625 -1.75 C 32.003906 -0.875 30.101562 -0.25 28.3125 0.125 C 26.53125 0.5 24.375 0.6875 21.84375 0.6875 Z M 20.296875 -33.390625 C 17.296875 -33.390625 14.898438 -32.410156 13.109375 -30.453125 C 11.316406 -28.492188 10.265625 -25.78125 9.953125 -22.3125 L 29.53125 -22.3125 C 29.53125 -25.894531 28.734375 -28.632812 27.140625 -30.53125 C 25.546875 -32.4375 23.265625 -33.390625 20.296875 -33.390625 Z M 20.296875 -33.390625 "/></g></g></g><g fill="#ffffff" fill-opacity="1"><g transform="translate(493.836828, 107.250015)"><g><path d="M 30.1875 -10.21875 C 30.1875 -6.726562 28.882812 -4.035156 26.28125 -2.140625 C 23.6875 -0.253906 20.039062 0.6875 15.34375 0.6875 C 10.375 0.6875 6.5 -0.0976562 3.71875 -1.671875 L 3.71875 -6.9375 C 5.519531 -6.03125 7.453125 -5.3125 9.515625 -4.78125 C 11.578125 -4.257812 13.566406 -4 15.484375 -4 C 18.441406 -4 20.71875 -4.472656 22.3125 -5.421875 C 23.914062 -6.367188 24.71875 -7.804688 24.71875 -9.734375 C 24.71875 -11.191406 24.082031 -12.441406 22.8125 -13.484375 C 21.550781 -14.523438 19.085938 -15.75 15.421875 -17.15625 C 11.929688 -18.457031 9.453125 -19.59375 7.984375 -20.5625 C 6.515625 -21.53125 5.421875 -22.628906 4.703125 -23.859375 C 3.984375 -25.085938 3.625 -26.554688 3.625 -28.265625 C 3.625 -31.316406 4.863281 -33.722656 7.34375 -35.484375 C 9.832031 -37.253906 13.238281 -38.140625 17.5625 -38.140625 C 21.601562 -38.140625 25.546875 -37.320312 29.390625 -35.6875 L 27.375 -31.0625 C 23.613281 -32.613281 20.207031 -33.390625 17.15625 -33.390625 C 14.46875 -33.390625 12.441406 -32.96875 11.078125 -32.125 C 9.710938 -31.28125 9.03125 -30.117188 9.03125 -28.640625 C 9.03125 -27.640625 9.285156 -26.785156 9.796875 -26.078125 C 10.304688 -25.367188 11.128906 -24.695312 12.265625 -24.0625 C 13.410156 -23.425781 15.597656 -22.503906 18.828125 -21.296875 C 23.273438 -19.679688 26.28125 -18.050781 27.84375 -16.40625 C 29.40625 -14.769531 30.1875 -12.707031 30.1875 -10.21875 Z M 30.1875 -10.21875 "/></g></g></g><g fill="#ffffff" fill-opacity="1"><g transform="translate(527.228512, 107.250015)"><g/></g></g><g fill="#ffffff" fill-opacity="1"><g transform="translate(545.411112, 107.250015)"><g><path d="M 29.046875 0 L 27.921875 -5.328125 L 27.65625 -5.328125 C 25.78125 -2.984375 23.914062 -1.394531 22.0625 -0.5625 C 20.207031 0.269531 17.890625 0.6875 15.109375 0.6875 C 11.390625 0.6875 8.476562 -0.269531 6.375 -2.1875 C 4.269531 -4.101562 3.21875 -6.828125 3.21875 -10.359375 C 3.21875 -17.921875 9.265625 -21.882812 21.359375 -22.25 L 27.71875 -22.453125 L 27.71875 -24.78125 C 27.71875 -27.71875 27.082031 -29.882812 25.8125 -31.28125 C 24.550781 -32.6875 22.53125 -33.390625 19.75 -33.390625 C 16.632812 -33.390625 13.101562 -32.429688 9.15625 -30.515625 L 7.421875 -34.859375 C 9.265625 -35.867188 11.285156 -36.65625 13.484375 -37.21875 C 15.679688 -37.789062 17.882812 -38.078125 20.09375 -38.078125 C 24.5625 -38.078125 27.867188 -37.082031 30.015625 -35.09375 C 32.171875 -33.113281 33.25 -29.9375 33.25 -25.5625 L 33.25 0 Z M 16.234375 -4 C 19.765625 -4 22.535156 -4.96875 24.546875 -6.90625 C 26.566406 -8.84375 27.578125 -11.554688 27.578125 -15.046875 L 27.578125 -18.421875 L 21.90625 -18.1875 C 17.394531 -18.019531 14.140625 -17.316406 12.140625 -16.078125 C 10.148438 -14.835938 9.15625 -12.90625 9.15625 -10.28125 C 9.15625 -8.238281 9.773438 -6.679688 11.015625 -5.609375 C 12.265625 -4.535156 14.003906 -4 16.234375 -4 Z M 16.234375 -4 "/></g></g></g><g fill="#ffffff" fill-opacity="1"><g transform="translate(584.339608, 107.250015)"><g><path d="M 31.65625 0 L 31.65625 -24.234375 C 31.65625 -27.285156 30.957031 -29.5625 29.5625 -31.0625 C 28.175781 -32.570312 26 -33.328125 23.03125 -33.328125 C 19.113281 -33.328125 16.242188 -32.265625 14.421875 -30.140625 C 12.597656 -28.023438 11.6875 -24.53125 11.6875 -19.65625 L 11.6875 0 L 6.015625 0 L 6.015625 -37.46875 L 10.625 -37.46875 L 11.546875 -32.328125 L 11.828125 -32.328125 C 12.984375 -34.179688 14.609375 -35.613281 16.703125 -36.625 C 18.804688 -37.632812 21.144531 -38.140625 23.71875 -38.140625 C 28.226562 -38.140625 31.625 -37.050781 33.90625 -34.875 C 36.1875 -32.695312 37.328125 -29.21875 37.328125 -24.4375 L 37.328125 0 Z M 31.65625 0 "/></g></g></g><g fill="#ffffff" fill-opacity="1"><g transform="translate(627.30107, 107.250015)"><g><path d="M 31.515625 -5.03125 L 31.203125 -5.03125 C 28.585938 -1.21875 24.671875 0.6875 19.453125 0.6875 C 14.546875 0.6875 10.734375 -0.984375 8.015625 -4.328125 C 5.296875 -7.679688 3.9375 -12.445312 3.9375 -18.625 C 3.9375 -24.800781 5.300781 -29.597656 8.03125 -33.015625 C 10.769531 -36.429688 14.578125 -38.140625 19.453125 -38.140625 C 24.535156 -38.140625 28.429688 -36.296875 31.140625 -32.609375 L 31.578125 -32.609375 L 31.34375 -35.3125 L 31.203125 -37.9375 L 31.203125 -53.1875 L 36.875 -53.1875 L 36.875 0 L 32.265625 0 Z M 20.171875 -4.0625 C 24.046875 -4.0625 26.851562 -5.113281 28.59375 -7.21875 C 30.332031 -9.332031 31.203125 -12.738281 31.203125 -17.4375 L 31.203125 -18.625 C 31.203125 -23.9375 30.316406 -27.722656 28.546875 -29.984375 C 26.785156 -32.253906 23.96875 -33.390625 20.09375 -33.390625 C 16.769531 -33.390625 14.222656 -32.097656 12.453125 -29.515625 C 10.691406 -26.929688 9.8125 -23.28125 9.8125 -18.5625 C 9.8125 -13.769531 10.6875 -10.15625 12.4375 -7.71875 C 14.195312 -5.28125 16.773438 -4.0625 20.171875 -4.0625 Z M 20.171875 -4.0625 "/></g></g></g><g fill="#ffffff" fill-opacity="1"><g transform="translate(670.194187, 107.250015)"><g/></g></g><g fill="#ffffff" fill-opacity="1"><g transform="translate(688.376765, 107.250015)"><g><path d="M 12.6875 -20.78125 L 12.6875 0 L 6.875 0 L 6.875 -49.96875 L 20.578125 -49.96875 C 26.703125 -49.96875 31.226562 -48.796875 34.15625 -46.453125 C 37.09375 -44.109375 38.5625 -40.578125 38.5625 -35.859375 C 38.5625 -29.242188 35.207031 -24.773438 28.5 -22.453125 L 42.078125 0 L 35.203125 0 L 23.109375 -20.78125 Z M 12.6875 -25.765625 L 20.640625 -25.765625 C 24.742188 -25.765625 27.753906 -26.578125 29.671875 -28.203125 C 31.585938 -29.835938 32.546875 -32.285156 32.546875 -35.546875 C 32.546875 -38.847656 31.566406 -41.226562 29.609375 -42.6875 C 27.660156 -44.144531 24.535156 -44.875 20.234375 -44.875 L 12.6875 -44.875 Z M 12.6875 -25.765625 "/></g></g></g><g fill="#ffffff" fill-opacity="1"><g transform="translate(731.645844, 107.250015)"><g><path d="M 21.84375 0.6875 C 16.300781 0.6875 11.929688 -1 8.734375 -4.375 C 5.535156 -7.75 3.9375 -12.429688 3.9375 -18.421875 C 3.9375 -24.460938 5.421875 -29.257812 8.390625 -32.8125 C 11.367188 -36.363281 15.363281 -38.140625 20.375 -38.140625 C 25.0625 -38.140625 28.769531 -36.59375 31.5 -33.5 C 34.238281 -30.414062 35.609375 -26.347656 35.609375 -21.296875 L 35.609375 -17.703125 L 9.8125 -17.703125 C 9.925781 -13.304688 11.035156 -9.96875 13.140625 -7.6875 C 15.242188 -5.40625 18.210938 -4.265625 22.046875 -4.265625 C 26.078125 -4.265625 30.066406 -5.109375 34.015625 -6.796875 L 34.015625 -1.75 C 32.003906 -0.875 30.101562 -0.25 28.3125 0.125 C 26.53125 0.5 24.375 0.6875 21.84375 0.6875 Z M 20.296875 -33.390625 C 17.296875 -33.390625 14.898438 -32.410156 13.109375 -30.453125 C 11.316406 -28.492188 10.265625 -25.78125 9.953125 -22.3125 L 29.53125 -22.3125 C 29.53125 -25.894531 28.734375 -28.632812 27.140625 -30.53125 C 25.546875 -32.4375 23.265625 -33.390625 20.296875 -33.390625 Z M 20.296875 -33.390625 "/></g></g></g><g fill="#ffffff" fill-opacity="1"><g transform="translate(770.916106, 107.250015)"><g><path d="M 30.1875 -10.21875 C 30.1875 -6.726562 28.882812 -4.035156 26.28125 -2.140625 C 23.6875 -0.253906 20.039062 0.6875 15.34375 0.6875 C 10.375 0.6875 6.5 -0.0976562 3.71875 -1.671875 L 3.71875 -6.9375 C 5.519531 -6.03125 7.453125 -5.3125 9.515625 -4.78125 C 11.578125 -4.257812 13.566406 -4 15.484375 -4 C 18.441406 -4 20.71875 -4.472656 22.3125 -5.421875 C 23.914062 -6.367188 24.71875 -7.804688 24.71875 -9.734375 C 24.71875 -11.191406 24.082031 -12.441406 22.8125 -13.484375 C 21.550781 -14.523438 19.085938 -15.75 15.421875 -17.15625 C 11.929688 -18.457031 9.453125 -19.59375 7.984375 -20.5625 C 6.515625 -21.53125 5.421875 -22.628906 4.703125 -23.859375 C 3.984375 -25.085938 3.625 -26.554688 3.625 -28.265625 C 3.625 -31.316406 4.863281 -33.722656 7.34375 -35.484375 C 9.832031 -37.253906 13.238281 -38.140625 17.5625 -38.140625 C 21.601562 -38.140625 25.546875 -37.320312 29.390625 -35.6875 L 27.375 -31.0625 C 23.613281 -32.613281 20.207031 -33.390625 17.15625 -33.390625 C 14.46875 -33.390625 12.441406 -32.96875 11.078125 -32.125 C 9.710938 -31.28125 9.03125 -30.117188 9.03125 -28.640625 C 9.03125 -27.640625 9.285156 -26.785156 9.796875 -26.078125 C 10.304688 -25.367188 11.128906 -24.695312 12.265625 -24.0625 C 13.410156 -23.425781 15.597656 -22.503906 18.828125 -21.296875 C 23.273438 -19.679688 26.28125 -18.050781 27.84375 -16.40625 C 29.40625 -14.769531 30.1875 -12.707031 30.1875 -10.21875 Z M 30.1875 -10.21875 "/></g></g></g><g fill="#ffffff" fill-opacity="1"><g transform="translate(804.307813, 107.250015)"><g><path d="M 18.109375 -4 C 19.117188 -4 20.085938 -4.070312 21.015625 -4.21875 C 21.953125 -4.363281 22.695312 -4.519531 23.25 -4.6875 L 23.25 -0.34375 C 22.625 -0.0390625 21.710938 0.203125 20.515625 0.390625 C 19.328125 0.585938 18.253906 0.6875 17.296875 0.6875 C 10.046875 0.6875 6.421875 -3.128906 6.421875 -10.765625 L 6.421875 -33.046875 L 1.0625 -33.046875 L 1.0625 -35.78125 L 6.421875 -38.140625 L 8.8125 -46.140625 L 12.09375 -46.140625 L 12.09375 -37.46875 L 22.96875 -37.46875 L 22.96875 -33.046875 L 12.09375 -33.046875 L 12.09375 -11 C 12.09375 -8.75 12.628906 -7.019531 13.703125 -5.8125 C 14.773438 -4.601562 16.242188 -4 18.109375 -4 Z M 18.109375 -4 "/></g></g></g><g fill="#ffffff" fill-opacity="1"><g transform="translate(829.018353, 107.250015)"><g><path d="M 30.1875 -10.21875 C 30.1875 -6.726562 28.882812 -4.035156 26.28125 -2.140625 C 23.6875 -0.253906 20.039062 0.6875 15.34375 0.6875 C 10.375 0.6875 6.5 -0.0976562 3.71875 -1.671875 L 3.71875 -6.9375 C 5.519531 -6.03125 7.453125 -5.3125 9.515625 -4.78125 C 11.578125 -4.257812 13.566406 -4 15.484375 -4 C 18.441406 -4 20.71875 -4.472656 22.3125 -5.421875 C 23.914062 -6.367188 24.71875 -7.804688 24.71875 -9.734375 C 24.71875 -11.191406 24.082031 -12.441406 22.8125 -13.484375 C 21.550781 -14.523438 19.085938 -15.75 15.421875 -17.15625 C 11.929688 -18.457031 9.453125 -19.59375 7.984375 -20.5625 C 6.515625 -21.53125 5.421875 -22.628906 4.703125 -23.859375 C 3.984375 -25.085938 3.625 -26.554688 3.625 -28.265625 C 3.625 -31.316406 4.863281 -33.722656 7.34375 -35.484375 C 9.832031 -37.253906 13.238281 -38.140625 17.5625 -38.140625 C 21.601562 -38.140625 25.546875 -37.320312 29.390625 -35.6875 L 27.375 -31.0625 C 23.613281 -32.613281 20.207031 -33.390625 17.15625 -33.390625 C 14.46875 -33.390625 12.441406 -32.96875 11.078125 -32.125 C 9.710938 -31.28125 9.03125 -30.117188 9.03125 -28.640625 C 9.03125 -27.640625 9.285156 -26.785156 9.796875 -26.078125 C 10.304688 -25.367188 11.128906 -24.695312 12.265625 -24.0625 C 13.410156 -23.425781 15.597656 -22.503906 18.828125 -21.296875 C 23.273438 -19.679688 26.28125 -18.050781 27.84375 -16.40625 C 29.40625 -14.769531 30.1875 -12.707031 30.1875 -10.21875 Z M 30.1875 -10.21875 "/></g></g></g><g fill="#ffffff" fill-opacity="1"><g transform="translate(862.410059, 107.250015)"><g/></g></g><g fill="#ffffff" fill-opacity="1"><g transform="translate(880.592615, 107.250015)"><g><path d="M 6.875 0 L 6.875 -49.96875 L 12.6875 -49.96875 L 12.6875 -5.265625 L 34.734375 -5.265625 L 34.734375 0 Z M 6.875 0 "/></g></g></g><g fill="#ffffff" fill-opacity="1"><g transform="translate(916.923576, 107.250015)"><g><path d="M 21.84375 0.6875 C 16.300781 0.6875 11.929688 -1 8.734375 -4.375 C 5.535156 -7.75 3.9375 -12.429688 3.9375 -18.421875 C 3.9375 -24.460938 5.421875 -29.257812 8.390625 -32.8125 C 11.367188 -36.363281 15.363281 -38.140625 20.375 -38.140625 C 25.0625 -38.140625 28.769531 -36.59375 31.5 -33.5 C 34.238281 -30.414062 35.609375 -26.347656 35.609375 -21.296875 L 35.609375 -17.703125 L 9.8125 -17.703125 C 9.925781 -13.304688 11.035156 -9.96875 13.140625 -7.6875 C 15.242188 -5.40625 18.210938 -4.265625 22.046875 -4.265625 C 26.078125 -4.265625 30.066406 -5.109375 34.015625 -6.796875 L 34.015625 -1.75 C 32.003906 -0.875 30.101562 -0.25 28.3125 0.125 C 26.53125 0.5 24.375 0.6875 21.84375 0.6875 Z M 20.296875 -33.390625 C 17.296875 -33.390625 14.898438 -32.410156 13.109375 -30.453125 C 11.316406 -28.492188 10.265625 -25.78125 9.953125 -22.3125 L 29.53125 -22.3125 C 29.53125 -25.894531 28.734375 -28.632812 27.140625 -30.53125 C 25.546875 -32.4375 23.265625 -33.390625 20.296875 -33.390625 Z M 20.296875 -33.390625 "/></g></g></g><g fill="#ffffff" fill-opacity="1"><g transform="translate(956.193883, 107.250015)"><g><path d="M 31.65625 0 L 31.65625 -24.234375 C 31.65625 -27.285156 30.957031 -29.5625 29.5625 -31.0625 C 28.175781 -32.570312 26 -33.328125 23.03125 -33.328125 C 19.113281 -33.328125 16.242188 -32.265625 14.421875 -30.140625 C 12.597656 -28.023438 11.6875 -24.53125 11.6875 -19.65625 L 11.6875 0 L 6.015625 0 L 6.015625 -37.46875 L 10.625 -37.46875 L 11.546875 -32.328125 L 11.828125 -32.328125 C 12.984375 -34.179688 14.609375 -35.613281 16.703125 -36.625 C 18.804688 -37.632812 21.144531 -38.140625 23.71875 -38.140625 C 28.226562 -38.140625 31.625 -37.050781 33.90625 -34.875 C 36.1875 -32.695312 37.328125 -29.21875 37.328125 -24.4375 L 37.328125 0 Z M 31.65625 0 "/></g></g></g><g fill="#ffffff" fill-opacity="1"><g transform="translate(999.155322, 107.250015)"><g><path d="M 36.671875 -37.46875 L 36.671875 -33.875 L 29.734375 -33.046875 C 30.367188 -32.253906 30.9375 -31.210938 31.4375 -29.921875 C 31.945312 -28.640625 32.203125 -27.1875 32.203125 -25.5625 C 32.203125 -21.894531 30.945312 -18.96875 28.4375 -16.78125 C 25.925781 -14.59375 22.484375 -13.5 18.109375 -13.5 C 16.992188 -13.5 15.945312 -13.59375 14.96875 -13.78125 C 12.550781 -12.5 11.34375 -10.890625 11.34375 -8.953125 C 11.34375 -7.929688 11.765625 -7.175781 12.609375 -6.6875 C 13.453125 -6.195312 14.898438 -5.953125 16.953125 -5.953125 L 23.578125 -5.953125 C 27.640625 -5.953125 30.757812 -5.097656 32.9375 -3.390625 C 35.113281 -1.679688 36.203125 0.800781 36.203125 4.0625 C 36.203125 8.207031 34.535156 11.367188 31.203125 13.546875 C 27.878906 15.722656 23.023438 16.8125 16.640625 16.8125 C 11.742188 16.8125 7.96875 15.898438 5.3125 14.078125 C 2.65625 12.253906 1.328125 9.679688 1.328125 6.359375 C 1.328125 4.078125 2.054688 2.101562 3.515625 0.4375 C 4.972656 -1.21875 7.023438 -2.34375 9.671875 -2.9375 C 8.710938 -3.375 7.910156 -4.046875 7.265625 -4.953125 C 6.617188 -5.867188 6.296875 -6.929688 6.296875 -8.140625 C 6.296875 -9.503906 6.660156 -10.695312 7.390625 -11.71875 C 8.117188 -12.75 9.265625 -13.742188 10.828125 -14.703125 C 8.898438 -15.492188 7.320312 -16.847656 6.09375 -18.765625 C 4.875 -20.679688 4.265625 -22.867188 4.265625 -25.328125 C 4.265625 -29.429688 5.492188 -32.59375 7.953125 -34.8125 C 10.421875 -37.03125 13.910156 -38.140625 18.421875 -38.140625 C 20.378906 -38.140625 22.144531 -37.914062 23.71875 -37.46875 Z M 6.796875 6.296875 C 6.796875 8.316406 7.648438 9.847656 9.359375 10.890625 C 11.066406 11.941406 13.519531 12.46875 16.71875 12.46875 C 21.476562 12.46875 25.003906 11.753906 27.296875 10.328125 C 29.585938 8.910156 30.734375 6.984375 30.734375 4.546875 C 30.734375 2.515625 30.101562 1.101562 28.84375 0.3125 C 27.59375 -0.46875 25.234375 -0.859375 21.765625 -0.859375 L 14.96875 -0.859375 C 12.394531 -0.859375 10.390625 -0.242188 8.953125 0.984375 C 7.515625 2.222656 6.796875 3.992188 6.796875 6.296875 Z M 9.875 -25.46875 C 9.875 -22.84375 10.613281 -20.859375 12.09375 -19.515625 C 13.582031 -18.171875 15.644531 -17.5 18.28125 -17.5 C 23.820312 -17.5 26.59375 -20.1875 26.59375 -25.5625 C 26.59375 -31.195312 23.789062 -34.015625 18.1875 -34.015625 C 15.519531 -34.015625 13.46875 -33.296875 12.03125 -31.859375 C 10.59375 -30.421875 9.875 -28.289062 9.875 -25.46875 Z M 9.875 -25.46875 "/></g></g></g><g fill="#ffffff" fill-opacity="1"><g transform="translate(1037.502824, 107.250015)"><g><path d="M 18.109375 -4 C 19.117188 -4 20.085938 -4.070312 21.015625 -4.21875 C 21.953125 -4.363281 22.695312 -4.519531 23.25 -4.6875 L 23.25 -0.34375 C 22.625 -0.0390625 21.710938 0.203125 20.515625 0.390625 C 19.328125 0.585938 18.253906 0.6875 17.296875 0.6875 C 10.046875 0.6875 6.421875 -3.128906 6.421875 -10.765625 L 6.421875 -33.046875 L 1.0625 -33.046875 L 1.0625 -35.78125 L 6.421875 -38.140625 L 8.8125 -46.140625 L 12.09375 -46.140625 L 12.09375 -37.46875 L 22.96875 -37.46875 L 22.96875 -33.046875 L 12.09375 -33.046875 L 12.09375 -11 C 12.09375 -8.75 12.628906 -7.019531 13.703125 -5.8125 C 14.773438 -4.601562 16.242188 -4 18.109375 -4 Z M 18.109375 -4 "/></g></g></g><g fill="#ffffff" fill-opacity="1"><g transform="translate(1062.213364, 107.250015)"><g><path d="M 31.65625 0 L 31.65625 -24.234375 C 31.65625 -27.285156 30.957031 -29.5625 29.5625 -31.0625 C 28.175781 -32.570312 26 -33.328125 23.03125 -33.328125 C 19.09375 -33.328125 16.21875 -32.253906 14.40625 -30.109375 C 12.59375 -27.972656 11.6875 -24.460938 11.6875 -19.578125 L 11.6875 0 L 6.015625 0 L 6.015625 -53.1875 L 11.6875 -53.1875 L 11.6875 -37.078125 C 11.6875 -35.148438 11.597656 -33.546875 11.421875 -32.265625 L 11.765625 -32.265625 C 12.878906 -34.066406 14.46875 -35.484375 16.53125 -36.515625 C 18.59375 -37.554688 20.941406 -38.078125 23.578125 -38.078125 C 28.160156 -38.078125 31.597656 -36.988281 33.890625 -34.8125 C 36.179688 -32.632812 37.328125 -29.175781 37.328125 -24.4375 L 37.328125 0 Z M 31.65625 0 "/></g></g></g></svg>